
      <svg xmlns="http://www.w3.org/2000/svg" version="1.1" width="937" height="891" style="display: block;"><polygon stroke-linejoin="round" stroke-miterlimit="1" stroke-width="1" points="1029.5,635.5 988.5,675.5 1009.5,718.5" style="fill:#2e7b24;stroke:#2e7b24;"></polygon><polygon stroke-linejoin="round" stroke-miterlimit="1" stroke-width="1" points="1036.5,778.5 1029.5,635.5 1009.5,718.5" style="fill:#2d7b24;stroke:#2d7b24;"></polygon><polygon stroke-linejoin="round" stroke-miterlimit="1" stroke-width="1" points="1049.5,587.5 1029.5,635.5 1036.5,778.5" style="fill:#2f7c25;stroke:#2f7c25;"></polygon><polygon stroke-linejoin="round" stroke-miterlimit="1" stroke-width="1" points="1063.5,235.5 1042.5,242.5 1054.5,283.5" style="fill:#37842d;stroke:#37842d;"></polygon><polygon stroke-linejoin="round" stroke-miterlimit="1" stroke-width="1" points="1065.5,926.5 854.5,922.5 803.5,926.5" style="fill:#0a5800;stroke:#0a5800;"></polygon><polygon stroke-linejoin="round" stroke-miterlimit="1" stroke-width="1" points="1065.5,926.5 1036.5,778.5 854.5,922.5" style="fill:#297720;stroke:#297720;"></polygon><polygon stroke-linejoin="round" stroke-miterlimit="1" stroke-width="1" points="1067.5,63.5 1031.5,-2.5 1060.5,69.5" style="fill:#439139;stroke:#439139;"></polygon><polygon stroke-linejoin="round" stroke-miterlimit="1" stroke-width="1" points="1067.5,63.5 1060.5,69.5 1061.5,82.5" style="fill:#55a24b;stroke:#55a24b;"></polygon><polygon stroke-linejoin="round" stroke-miterlimit="1" stroke-width="1" points="1067.5,496.5 962.5,568.5 1049.5,587.5" style="fill:#307d26;stroke:#307d26;"></polygon><polygon stroke-linejoin="round" stroke-miterlimit="1" stroke-width="1" points="1067.5,496.5 969.5,486.5 962.5,568.5" style="fill:#307d26;stroke:#307d26;"></polygon><polygon stroke-linejoin="round" stroke-miterlimit="1" stroke-width="1" points="1067.5,214.5 996.5,220.5 1042.5,242.5" style="fill:#37842d;stroke:#37842d;"></polygon><polygon stroke-linejoin="round" stroke-miterlimit="1" stroke-width="1" points="1067.5,214.5 1002.5,130.5 996.5,220.5" style="fill:#36842d;stroke:#36842d;"></polygon><polygon stroke-linejoin="round" stroke-miterlimit="1" stroke-width="1" points="1067.5,214.5 1061.5,82.5 1002.5,130.5" style="fill:#328029;stroke:#328029;"></polygon><polygon stroke-linejoin="round" stroke-miterlimit="1" stroke-width="1" points="1067.5,214.5 1067.5,63.5 1061.5,82.5" style="fill:#4f9d46;stroke:#4f9d46;"></polygon><polygon stroke-linejoin="round" stroke-miterlimit="1" stroke-width="1" points="1067.5,468.5 969.5,486.5 1067.5,496.5" style="fill:#327f28;stroke:#327f28;"></polygon><polygon stroke-linejoin="round" stroke-miterlimit="1" stroke-width="1" points="1067.5,226.5 1067.5,214.5 1042.5,242.5" style="fill:#3f8c35;stroke:#3f8c35;"></polygon><polygon stroke-linejoin="round" stroke-miterlimit="1" stroke-width="1" points="1067.5,226.5 1042.5,242.5 1063.5,235.5" style="fill:#27741d;stroke:#27741d;"></polygon><polygon stroke-linejoin="round" stroke-miterlimit="1" stroke-width="1" points="1067.5,296.5 1054.5,283.5 997.5,265.5" style="fill:#33812a;stroke:#33812a;"></polygon><polygon stroke-linejoin="round" stroke-miterlimit="1" stroke-width="1" points="1067.5,296.5 997.5,265.5 952.5,444.5" style="fill:#36832c;stroke:#36832c;"></polygon><polygon stroke-linejoin="round" stroke-miterlimit="1" stroke-width="1" points="1067.5,296.5 1067.5,226.5 1063.5,235.5" style="fill:#2a7821;stroke:#2a7821;"></polygon><polygon stroke-linejoin="round" stroke-miterlimit="1" stroke-width="1" points="1067.5,296.5 1063.5,235.5 1054.5,283.5" style="fill:#206e17;stroke:#206e17;"></polygon><polygon stroke-linejoin="round" stroke-miterlimit="1" stroke-width="1" points="1067.5,-37.5 1031.5,-2.5 1067.5,63.5" style="fill:#327f28;stroke:#327f28;"></polygon><polygon stroke-linejoin="round" stroke-miterlimit="1" stroke-width="1" points="1067.5,-37.5 1018.5,-38.5 1031.5,-2.5" style="fill:#37852d;stroke:#37852d;"></polygon><polygon stroke-linejoin="round" stroke-miterlimit="1" stroke-width="1" points="1067.5,926.5 1036.5,778.5 1065.5,926.5" style="fill:#0d5a03;stroke:#0d5a03;"></polygon><polygon stroke-linejoin="round" stroke-miterlimit="1" stroke-width="1" points="1067.5,926.5 1049.5,587.5 1036.5,778.5" style="fill:#2e7c25;stroke:#2e7c25;"></polygon><polygon stroke-linejoin="round" stroke-miterlimit="1" stroke-width="1" points="1067.5,926.5 1067.5,496.5 1049.5,587.5" style="fill:#2a7821;stroke:#2a7821;"></polygon><polygon stroke-linejoin="round" stroke-miterlimit="1" stroke-width="1" points="1067.5,444.5 969.5,486.5 1067.5,468.5" style="fill:#338029;stroke:#338029;"></polygon><polygon stroke-linejoin="round" stroke-miterlimit="1" stroke-width="1" points="1067.5,444.5 952.5,444.5 969.5,486.5" style="fill:#34812a;stroke:#34812a;"></polygon><polygon stroke-linejoin="round" stroke-miterlimit="1" stroke-width="1" points="1067.5,444.5 1067.5,296.5 952.5,444.5" style="fill:#34822b;stroke:#34822b;"></polygon><polygon stroke-linejoin="round" stroke-miterlimit="1" stroke-width="1" points="1067.5,-38.5 1018.5,-38.5 1067.5,-37.5" style="fill:#0a5800;stroke:#0a5800;"></polygon><polygon stroke-linejoin="round" stroke-miterlimit="1" stroke-width="1" points="1060.5,69.5 1031.5,-2.5 979.5,69.5" style="fill:#307d26;stroke:#307d26;"></polygon><polygon stroke-linejoin="round" stroke-miterlimit="1" stroke-width="1" points="1061.5,82.5 988.5,89.5 1002.5,130.5" style="fill:#34822b;stroke:#34822b;"></polygon><polygon stroke-linejoin="round" stroke-miterlimit="1" stroke-width="1" points="1061.5,82.5 1060.5,69.5 988.5,89.5" style="fill:#317e27;stroke:#317e27;"></polygon><polygon stroke-linejoin="round" stroke-miterlimit="1" stroke-width="1" points="1060.5,69.5 979.5,69.5 988.5,89.5" style="fill:#36832c;stroke:#36832c;"></polygon><polygon stroke-linejoin="round" stroke-miterlimit="1" stroke-width="1" points="1036.5,778.5 896.5,736.5 854.5,922.5" style="fill:#2a7720;stroke:#2a7720;"></polygon><polygon stroke-linejoin="round" stroke-miterlimit="1" stroke-width="1" points="1054.5,283.5 1042.5,242.5 997.5,265.5" style="fill:#307e27;stroke:#307e27;"></polygon><polygon stroke-linejoin="round" stroke-miterlimit="1" stroke-width="1" points="997.5,265.5 866.5,374.5 952.5,444.5" style="fill:#398730;stroke:#398730;"></polygon><polygon stroke-linejoin="round" stroke-miterlimit="1" stroke-width="1" points="1049.5,587.5 962.5,568.5 1029.5,635.5" style="fill:#317f28;stroke:#317f28;"></polygon><polygon stroke-linejoin="round" stroke-miterlimit="1" stroke-width="1" points="1042.5,242.5 996.5,220.5 997.5,265.5" style="fill:#39862f;stroke:#39862f;"></polygon><polygon stroke-linejoin="round" stroke-miterlimit="1" stroke-width="1" points="1036.5,778.5 1009.5,718.5 982.5,706.5" style="fill:#2a7720;stroke:#2a7720;"></polygon><polygon stroke-linejoin="round" stroke-miterlimit="1" stroke-width="1" points="1036.5,778.5 982.5,706.5 915.5,721.5" style="fill:#2c7922;stroke:#2c7922;"></polygon><polygon stroke-linejoin="round" stroke-miterlimit="1" stroke-width="1" points="1036.5,778.5 915.5,721.5 896.5,736.5" style="fill:#29761f;stroke:#29761f;"></polygon><polygon stroke-linejoin="round" stroke-miterlimit="1" stroke-width="1" points="1031.5,-2.5 1018.5,-38.5 953.5,-38.5" style="fill:#317f28;stroke:#317f28;"></polygon><polygon stroke-linejoin="round" stroke-miterlimit="1" stroke-width="1" points="1031.5,-2.5 953.5,-38.5 979.5,69.5" style="fill:#34812a;stroke:#34812a;"></polygon><polygon stroke-linejoin="round" stroke-miterlimit="1" stroke-width="1" points="1029.5,635.5 962.5,568.5 988.5,675.5" style="fill:#2e7c25;stroke:#2e7c25;"></polygon><polygon stroke-linejoin="round" stroke-miterlimit="1" stroke-width="1" points="1002.5,130.5 916.5,130.5 996.5,220.5" style="fill:#3a8830;stroke:#3a8830;"></polygon><polygon stroke-linejoin="round" stroke-miterlimit="1" stroke-width="1" points="1009.5,718.5 988.5,675.5 982.5,706.5" style="fill:#2d7a23;stroke:#2d7a23;"></polygon><polygon stroke-linejoin="round" stroke-miterlimit="1" stroke-width="1" points="997.5,265.5 869.5,253.5 866.5,374.5" style="fill:#3c8932;stroke:#3c8932;"></polygon><polygon stroke-linejoin="round" stroke-miterlimit="1" stroke-width="1" points="988.5,675.5 962.5,568.5 906.5,680.5" style="fill:#317e27;stroke:#317e27;"></polygon><polygon stroke-linejoin="round" stroke-miterlimit="1" stroke-width="1" points="1002.5,130.5 988.5,89.5 916.5,130.5" style="fill:#35832c;stroke:#35832c;"></polygon><polygon stroke-linejoin="round" stroke-miterlimit="1" stroke-width="1" points="996.5,220.5 916.5,130.5 869.5,253.5" style="fill:#3a8730;stroke:#3a8730;"></polygon><polygon stroke-linejoin="round" stroke-miterlimit="1" stroke-width="1" points="997.5,265.5 996.5,220.5 869.5,253.5" style="fill:#37842d;stroke:#37842d;"></polygon><polygon stroke-linejoin="round" stroke-miterlimit="1" stroke-width="1" points="916.5,130.5 890.5,136.5 869.5,253.5" style="fill:#3c8932;stroke:#3c8932;"></polygon><polygon stroke-linejoin="round" stroke-miterlimit="1" stroke-width="1" points="988.5,675.5 906.5,680.5 982.5,706.5" style="fill:#2d7b24;stroke:#2d7b24;"></polygon><polygon stroke-linejoin="round" stroke-miterlimit="1" stroke-width="1" points="988.5,89.5 979.5,69.5 916.5,130.5" style="fill:#39862f;stroke:#39862f;"></polygon><polygon stroke-linejoin="round" stroke-miterlimit="1" stroke-width="1" points="979.5,69.5 953.5,-38.5 843.5,-38.5" style="fill:#36842d;stroke:#36842d;"></polygon><polygon stroke-linejoin="round" stroke-miterlimit="1" stroke-width="1" points="979.5,69.5 843.5,-38.5 910.5,130.5" style="fill:#3b8932;stroke:#3b8932;"></polygon><polygon stroke-linejoin="round" stroke-miterlimit="1" stroke-width="1" points="982.5,706.5 906.5,680.5 915.5,721.5" style="fill:#2d7a23;stroke:#2d7a23;"></polygon><polygon stroke-linejoin="round" stroke-miterlimit="1" stroke-width="1" points="969.5,486.5 877.5,469.5 962.5,568.5" style="fill:#34812a;stroke:#34812a;"></polygon><polygon stroke-linejoin="round" stroke-miterlimit="1" stroke-width="1" points="979.5,69.5 910.5,130.5 916.5,130.5" style="fill:#35822b;stroke:#35822b;"></polygon><polygon stroke-linejoin="round" stroke-miterlimit="1" stroke-width="1" points="962.5,568.5 837.5,554.5 906.5,680.5" style="fill:#328029;stroke:#328029;"></polygon><polygon stroke-linejoin="round" stroke-miterlimit="1" stroke-width="1" points="962.5,568.5 877.5,469.5 839.5,546.5" style="fill:#36842d;stroke:#36842d;"></polygon><polygon stroke-linejoin="round" stroke-miterlimit="1" stroke-width="1" points="969.5,486.5 952.5,444.5 877.5,469.5" style="fill:#33812a;stroke:#33812a;"></polygon><polygon stroke-linejoin="round" stroke-miterlimit="1" stroke-width="1" points="910.5,130.5 843.5,-38.5 890.5,136.5" style="fill:#3b8831;stroke:#3b8831;"></polygon><polygon stroke-linejoin="round" stroke-miterlimit="1" stroke-width="1" points="952.5,444.5 866.5,374.5 868.5,441.5" style="fill:#3b8932;stroke:#3b8932;"></polygon><polygon stroke-linejoin="round" stroke-miterlimit="1" stroke-width="1" points="962.5,568.5 839.5,546.5 837.5,554.5" style="fill:#37842d;stroke:#37842d;"></polygon><polygon stroke-linejoin="round" stroke-miterlimit="1" stroke-width="1" points="916.5,130.5 910.5,130.5 890.5,136.5" style="fill:#25721b;stroke:#25721b;"></polygon><polygon stroke-linejoin="round" stroke-miterlimit="1" stroke-width="1" points="952.5,444.5 868.5,441.5 877.5,469.5" style="fill:#3a8730;stroke:#3a8730;"></polygon><polygon stroke-linejoin="round" stroke-miterlimit="1" stroke-width="1" points="861.5,719.5 803.5,926.5 854.5,922.5" style="fill:#2b7821;stroke:#2b7821;"></polygon><polygon stroke-linejoin="round" stroke-miterlimit="1" stroke-width="1" points="861.5,719.5 745.5,728.5 803.5,926.5" style="fill:#2f7d26;stroke:#2f7d26;"></polygon><polygon stroke-linejoin="round" stroke-miterlimit="1" stroke-width="1" points="890.5,136.5 843.5,-38.5 769.5,59.5" style="fill:#3f8d36;stroke:#3f8d36;"></polygon><polygon stroke-linejoin="round" stroke-miterlimit="1" stroke-width="1" points="890.5,136.5 814.5,192.5 869.5,253.5" style="fill:#3e8c35;stroke:#3e8c35;"></polygon><polygon stroke-linejoin="round" stroke-miterlimit="1" stroke-width="1" points="896.5,736.5 861.5,719.5 854.5,922.5" style="fill:#2e7b24;stroke:#2e7b24;"></polygon><polygon stroke-linejoin="round" stroke-miterlimit="1" stroke-width="1" points="906.5,680.5 837.5,554.5 788.5,635.5" style="fill:#338029;stroke:#338029;"></polygon><polygon stroke-linejoin="round" stroke-miterlimit="1" stroke-width="1" points="915.5,721.5 906.5,680.5 861.5,719.5" style="fill:#317e27;stroke:#317e27;"></polygon><polygon stroke-linejoin="round" stroke-miterlimit="1" stroke-width="1" points="915.5,721.5 861.5,719.5 896.5,736.5" style="fill:#2d7b24;stroke:#2d7b24;"></polygon><polygon stroke-linejoin="round" stroke-miterlimit="1" stroke-width="1" points="906.5,680.5 788.5,635.5 861.5,719.5" style="fill:#338029;stroke:#338029;"></polygon><polygon stroke-linejoin="round" stroke-miterlimit="1" stroke-width="1" points="843.5,-38.5 513.5,-38.5 715.5,31.5" style="fill:#47953e;stroke:#47953e;"></polygon><polygon stroke-linejoin="round" stroke-miterlimit="1" stroke-width="1" points="843.5,-38.5 763.5,38.5 769.5,59.5" style="fill:#43913a;stroke:#43913a;"></polygon><polygon stroke-linejoin="round" stroke-miterlimit="1" stroke-width="1" points="869.5,253.5 771.5,373.5 866.5,374.5" style="fill:#418f38;stroke:#418f38;"></polygon><polygon stroke-linejoin="round" stroke-miterlimit="1" stroke-width="1" points="318.5,926.5 271.5,914.5 -127.5,926.5" style="fill:#317e27;stroke:#317e27;"></polygon><polygon stroke-linejoin="round" stroke-miterlimit="1" stroke-width="1" points="890.5,136.5 769.5,59.5 814.5,192.5" style="fill:#439039;stroke:#439039;"></polygon><polygon stroke-linejoin="round" stroke-miterlimit="1" stroke-width="1" points="868.5,441.5 866.5,374.5 771.5,373.5" style="fill:#3d8a33;stroke:#3d8a33;"></polygon><polygon stroke-linejoin="round" stroke-miterlimit="1" stroke-width="1" points="877.5,469.5 868.5,441.5 839.5,546.5" style="fill:#37852e;stroke:#37852e;"></polygon><polygon stroke-linejoin="round" stroke-miterlimit="1" stroke-width="1" points="861.5,719.5 788.5,635.5 755.5,678.5" style="fill:#33812a;stroke:#33812a;"></polygon><polygon stroke-linejoin="round" stroke-miterlimit="1" stroke-width="1" points="868.5,441.5 726.5,558.5 839.5,546.5" style="fill:#3b8932;stroke:#3b8932;"></polygon><polygon stroke-linejoin="round" stroke-miterlimit="1" stroke-width="1" points="868.5,441.5 771.5,373.5 726.5,558.5" style="fill:#3e8b34;stroke:#3e8b34;"></polygon><polygon stroke-linejoin="round" stroke-miterlimit="1" stroke-width="1" points="869.5,253.5 814.5,192.5 771.5,373.5" style="fill:#46943c;stroke:#46943c;"></polygon><polygon stroke-linejoin="round" stroke-miterlimit="1" stroke-width="1" points="803.5,926.5 745.5,728.5 663.5,841.5" style="fill:#2e7c25;stroke:#2e7c25;"></polygon><polygon stroke-linejoin="round" stroke-miterlimit="1" stroke-width="1" points="814.5,192.5 769.5,59.5 726.5,108.5" style="fill:#46933c;stroke:#46933c;"></polygon><polygon stroke-linejoin="round" stroke-miterlimit="1" stroke-width="1" points="861.5,719.5 755.5,678.5 745.5,728.5" style="fill:#34822b;stroke:#34822b;"></polygon><polygon stroke-linejoin="round" stroke-miterlimit="1" stroke-width="1" points="803.5,926.5 663.5,841.5 718.5,926.5" style="fill:#29771f;stroke:#29771f;"></polygon><polygon stroke-linejoin="round" stroke-miterlimit="1" stroke-width="1" points="814.5,192.5 680.5,217.5 771.5,373.5" style="fill:#4b9942;stroke:#4b9942;"></polygon><polygon stroke-linejoin="round" stroke-miterlimit="1" stroke-width="1" points="843.5,-38.5 715.5,31.5 749.5,30.5" style="fill:#44913a;stroke:#44913a;"></polygon><polygon stroke-linejoin="round" stroke-miterlimit="1" stroke-width="1" points="843.5,-38.5 749.5,30.5 763.5,38.5" style="fill:#408d36;stroke:#408d36;"></polygon><polygon stroke-linejoin="round" stroke-miterlimit="1" stroke-width="1" points="837.5,554.5 726.5,558.5 788.5,635.5" style="fill:#3c8932;stroke:#3c8932;"></polygon><polygon stroke-linejoin="round" stroke-miterlimit="1" stroke-width="1" points="839.5,546.5 726.5,558.5 837.5,554.5" style="fill:#509d46;stroke:#509d46;"></polygon><polygon stroke-linejoin="round" stroke-miterlimit="1" stroke-width="1" points="745.5,728.5 705.5,737.5 663.5,841.5" style="fill:#33812a;stroke:#33812a;"></polygon><polygon stroke-linejoin="round" stroke-miterlimit="1" stroke-width="1" points="814.5,192.5 726.5,108.5 680.5,217.5" style="fill:#4d9a43;stroke:#4d9a43;"></polygon><polygon stroke-linejoin="round" stroke-miterlimit="1" stroke-width="1" points="726.5,108.5 689.5,126.5 680.5,217.5" style="fill:#52a049;stroke:#52a049;"></polygon><polygon stroke-linejoin="round" stroke-miterlimit="1" stroke-width="1" points="771.5,373.5 585.5,440.5 726.5,558.5" style="fill:#45933c;stroke:#45933c;"></polygon><polygon stroke-linejoin="round" stroke-miterlimit="1" stroke-width="1" points="788.5,635.5 726.5,558.5 755.5,678.5" style="fill:#39872f;stroke:#39872f;"></polygon><polygon stroke-linejoin="round" stroke-miterlimit="1" stroke-width="1" points="769.5,59.5 709.5,71.5 726.5,108.5" style="fill:#499740;stroke:#499740;"></polygon><polygon stroke-linejoin="round" stroke-miterlimit="1" stroke-width="1" points="769.5,59.5 723.5,43.5 709.5,71.5" style="fill:#4c9942;stroke:#4c9942;"></polygon><polygon stroke-linejoin="round" stroke-miterlimit="1" stroke-width="1" points="771.5,373.5 680.5,217.5 552.5,354.5" style="fill:#529f48;stroke:#529f48;"></polygon><polygon stroke-linejoin="round" stroke-miterlimit="1" stroke-width="1" points="771.5,373.5 552.5,354.5 585.5,440.5" style="fill:#509e47;stroke:#509e47;"></polygon><polygon stroke-linejoin="round" stroke-miterlimit="1" stroke-width="1" points="755.5,678.5 726.5,558.5 632.5,694.5" style="fill:#3a8730;stroke:#3a8730;"></polygon><polygon stroke-linejoin="round" stroke-miterlimit="1" stroke-width="1" points="769.5,59.5 763.5,38.5 723.5,43.5" style="fill:#46943d;stroke:#46943d;"></polygon><polygon stroke-linejoin="round" stroke-miterlimit="1" stroke-width="1" points="715.5,31.5 513.5,-38.5 609.5,56.5" style="fill:#519e47;stroke:#519e47;"></polygon><polygon stroke-linejoin="round" stroke-miterlimit="1" stroke-width="1" points="763.5,38.5 749.5,30.5 723.5,43.5" style="fill:#47943d;stroke:#47943d;"></polygon><polygon stroke-linejoin="round" stroke-miterlimit="1" stroke-width="1" points="755.5,678.5 705.5,737.5 745.5,728.5" style="fill:#36842d;stroke:#36842d;"></polygon><polygon stroke-linejoin="round" stroke-miterlimit="1" stroke-width="1" points="755.5,678.5 632.5,694.5 705.5,737.5" style="fill:#34812a;stroke:#34812a;"></polygon><polygon stroke-linejoin="round" stroke-miterlimit="1" stroke-width="1" points="749.5,30.5 715.5,31.5 723.5,43.5" style="fill:#44913a;stroke:#44913a;"></polygon><polygon stroke-linejoin="round" stroke-miterlimit="1" stroke-width="1" points="718.5,926.5 663.5,841.5 643.5,896.5" style="fill:#2b7922;stroke:#2b7922;"></polygon><polygon stroke-linejoin="round" stroke-miterlimit="1" stroke-width="1" points="726.5,108.5 709.5,71.5 689.5,126.5" style="fill:#4b9942;stroke:#4b9942;"></polygon><polygon stroke-linejoin="round" stroke-miterlimit="1" stroke-width="1" points="726.5,558.5 531.5,550.5 632.5,694.5" style="fill:#3e8c35;stroke:#3e8c35;"></polygon><polygon stroke-linejoin="round" stroke-miterlimit="1" stroke-width="1" points="726.5,558.5 585.5,440.5 531.5,550.5" style="fill:#45923b;stroke:#45923b;"></polygon><polygon stroke-linejoin="round" stroke-miterlimit="1" stroke-width="1" points="723.5,43.5 715.5,31.5 709.5,71.5" style="fill:#45923b;stroke:#45923b;"></polygon><polygon stroke-linejoin="round" stroke-miterlimit="1" stroke-width="1" points="718.5,926.5 643.5,896.5 635.5,926.5" style="fill:#2e7c25;stroke:#2e7c25;"></polygon><polygon stroke-linejoin="round" stroke-miterlimit="1" stroke-width="1" points="715.5,31.5 609.5,56.5 709.5,71.5" style="fill:#4f9d45;stroke:#4f9d45;"></polygon><polygon stroke-linejoin="round" stroke-miterlimit="1" stroke-width="1" points="689.5,126.5 615.5,156.5 680.5,217.5" style="fill:#57a44d;stroke:#57a44d;"></polygon><polygon stroke-linejoin="round" stroke-miterlimit="1" stroke-width="1" points="705.5,737.5 592.5,722.5 663.5,841.5" style="fill:#327f28;stroke:#327f28;"></polygon><polygon stroke-linejoin="round" stroke-miterlimit="1" stroke-width="1" points="709.5,71.5 627.5,102.5 689.5,126.5" style="fill:#529f48;stroke:#529f48;"></polygon><polygon stroke-linejoin="round" stroke-miterlimit="1" stroke-width="1" points="709.5,71.5 609.5,56.5 627.5,102.5" style="fill:#53a14a;stroke:#53a14a;"></polygon><polygon stroke-linejoin="round" stroke-miterlimit="1" stroke-width="1" points="705.5,737.5 632.5,694.5 592.5,722.5" style="fill:#37842d;stroke:#37842d;"></polygon><polygon stroke-linejoin="round" stroke-miterlimit="1" stroke-width="1" points="632.5,694.5 612.5,702.5 592.5,722.5" style="fill:#36842d;stroke:#36842d;"></polygon><polygon stroke-linejoin="round" stroke-miterlimit="1" stroke-width="1" points="663.5,841.5 592.5,722.5 567.5,794.5" style="fill:#328029;stroke:#328029;"></polygon><polygon stroke-linejoin="round" stroke-miterlimit="1" stroke-width="1" points="689.5,126.5 627.5,102.5 615.5,156.5" style="fill:#58a64f;stroke:#58a64f;"></polygon><polygon stroke-linejoin="round" stroke-miterlimit="1" stroke-width="1" points="680.5,217.5 615.5,156.5 552.5,354.5" style="fill:#5ba952;stroke:#5ba952;"></polygon><polygon stroke-linejoin="round" stroke-miterlimit="1" stroke-width="1" points="627.5,102.5 606.5,121.5 615.5,156.5" style="fill:#5ca952;stroke:#5ca952;"></polygon><polygon stroke-linejoin="round" stroke-miterlimit="1" stroke-width="1" points="632.5,694.5 531.5,550.5 612.5,702.5" style="fill:#3b8931;stroke:#3b8931;"></polygon><polygon stroke-linejoin="round" stroke-miterlimit="1" stroke-width="1" points="663.5,841.5 566.5,851.5 643.5,896.5" style="fill:#2e7c24;stroke:#2e7c24;"></polygon><polygon stroke-linejoin="round" stroke-miterlimit="1" stroke-width="1" points="663.5,841.5 567.5,794.5 566.5,851.5" style="fill:#317e27;stroke:#317e27;"></polygon><polygon stroke-linejoin="round" stroke-miterlimit="1" stroke-width="1" points="615.5,156.5 436.5,238.5 552.5,354.5" style="fill:#62b059;stroke:#62b059;"></polygon><polygon stroke-linejoin="round" stroke-miterlimit="1" stroke-width="1" points="643.5,896.5 566.5,851.5 635.5,926.5" style="fill:#2d7b24;stroke:#2d7b24;"></polygon><polygon stroke-linejoin="round" stroke-miterlimit="1" stroke-width="1" points="635.5,926.5 566.5,851.5 541.5,926.5" style="fill:#2d7a23;stroke:#2d7a23;"></polygon><polygon stroke-linejoin="round" stroke-miterlimit="1" stroke-width="1" points="609.5,56.5 513.5,-38.5 499.5,-11.5" style="fill:#55a24b;stroke:#55a24b;"></polygon><polygon stroke-linejoin="round" stroke-miterlimit="1" stroke-width="1" points="612.5,702.5 531.5,550.5 592.5,722.5" style="fill:#3b8932;stroke:#3b8932;"></polygon><polygon stroke-linejoin="round" stroke-miterlimit="1" stroke-width="1" points="615.5,156.5 549.5,110.5 436.5,238.5" style="fill:#62b059;stroke:#62b059;"></polygon><polygon stroke-linejoin="round" stroke-miterlimit="1" stroke-width="1" points="627.5,102.5 609.5,56.5 606.5,121.5" style="fill:#53a049;stroke:#53a049;"></polygon><polygon stroke-linejoin="round" stroke-miterlimit="1" stroke-width="1" points="609.5,56.5 549.5,110.5 606.5,121.5" style="fill:#59a64f;stroke:#59a64f;"></polygon><polygon stroke-linejoin="round" stroke-miterlimit="1" stroke-width="1" points="615.5,156.5 606.5,121.5 549.5,110.5" style="fill:#5ba851;stroke:#5ba851;"></polygon><polygon stroke-linejoin="round" stroke-miterlimit="1" stroke-width="1" points="592.5,722.5 531.5,550.5 467.5,765.5" style="fill:#3b8831;stroke:#3b8831;"></polygon><polygon stroke-linejoin="round" stroke-miterlimit="1" stroke-width="1" points="609.5,56.5 499.5,-11.5 549.5,110.5" style="fill:#5aa851;stroke:#5aa851;"></polygon><polygon stroke-linejoin="round" stroke-miterlimit="1" stroke-width="1" points="531.5,550.5 379.5,693.5 467.5,765.5" style="fill:#3c8932;stroke:#3c8932;"></polygon><polygon stroke-linejoin="round" stroke-miterlimit="1" stroke-width="1" points="592.5,722.5 467.5,765.5 567.5,794.5" style="fill:#36842d;stroke:#36842d;"></polygon><polygon stroke-linejoin="round" stroke-miterlimit="1" stroke-width="1" points="585.5,440.5 552.5,354.5 422.5,468.5" style="fill:#55a24b;stroke:#55a24b;"></polygon><polygon stroke-linejoin="round" stroke-miterlimit="1" stroke-width="1" points="585.5,440.5 422.5,468.5 531.5,550.5" style="fill:#4d9a43;stroke:#4d9a43;"></polygon><polygon stroke-linejoin="round" stroke-miterlimit="1" stroke-width="1" points="552.5,354.5 436.5,238.5 417.5,291.5" style="fill:#62af58;stroke:#62af58;"></polygon><polygon stroke-linejoin="round" stroke-miterlimit="1" stroke-width="1" points="566.5,851.5 469.5,926.5 541.5,926.5" style="fill:#2d7a23;stroke:#2d7a23;"></polygon><polygon stroke-linejoin="round" stroke-miterlimit="1" stroke-width="1" points="566.5,851.5 541.5,926.5 541.5,926.5" style="fill:#2f7c25;stroke:#2f7c25;"></polygon><polygon stroke-linejoin="round" stroke-miterlimit="1" stroke-width="1" points="567.5,794.5 467.5,765.5 566.5,851.5" style="fill:#317f28;stroke:#317f28;"></polygon><polygon stroke-linejoin="round" stroke-miterlimit="1" stroke-width="1" points="552.5,354.5 394.5,380.5 422.5,468.5" style="fill:#56a44d;stroke:#56a44d;"></polygon><polygon stroke-linejoin="round" stroke-miterlimit="1" stroke-width="1" points="566.5,851.5 467.5,765.5 469.5,926.5" style="fill:#307d26;stroke:#307d26;"></polygon><polygon stroke-linejoin="round" stroke-miterlimit="1" stroke-width="1" points="552.5,354.5 414.5,315.5 394.5,380.5" style="fill:#5aa851;stroke:#5aa851;"></polygon><polygon stroke-linejoin="round" stroke-miterlimit="1" stroke-width="1" points="552.5,354.5 417.5,291.5 414.5,315.5" style="fill:#5ba952;stroke:#5ba952;"></polygon><polygon stroke-linejoin="round" stroke-miterlimit="1" stroke-width="1" points="549.5,110.5 499.5,-11.5 328.5,181.5" style="fill:#60ae57;stroke:#60ae57;"></polygon><polygon stroke-linejoin="round" stroke-miterlimit="1" stroke-width="1" points="549.5,110.5 328.5,181.5 436.5,238.5" style="fill:#66b35c;stroke:#66b35c;"></polygon><polygon stroke-linejoin="round" stroke-miterlimit="1" stroke-width="1" points="499.5,-11.5 303.5,8.5 328.5,181.5" style="fill:#5aa750;stroke:#5aa750;"></polygon><polygon stroke-linejoin="round" stroke-miterlimit="1" stroke-width="1" points="531.5,550.5 422.5,468.5 416.5,470.5" style="fill:#52a048;stroke:#52a048;"></polygon><polygon stroke-linejoin="round" stroke-miterlimit="1" stroke-width="1" points="531.5,550.5 416.5,470.5 379.5,693.5" style="fill:#44913a;stroke:#44913a;"></polygon><polygon stroke-linejoin="round" stroke-miterlimit="1" stroke-width="1" points="469.5,926.5 467.5,765.5 361.5,841.5" style="fill:#307d26;stroke:#307d26;"></polygon><polygon stroke-linejoin="round" stroke-miterlimit="1" stroke-width="1" points="499.5,-11.5 469.5,-38.5 303.5,8.5" style="fill:#529f48;stroke:#529f48;"></polygon><polygon stroke-linejoin="round" stroke-miterlimit="1" stroke-width="1" points="513.5,-38.5 469.5,-38.5 499.5,-11.5" style="fill:#519e47;stroke:#519e47;"></polygon><polygon stroke-linejoin="round" stroke-miterlimit="1" stroke-width="1" points="271.5,914.5 142.5,870.5 -127.5,926.5" style="fill:#2f7c25;stroke:#2f7c25;"></polygon><polygon stroke-linejoin="round" stroke-miterlimit="1" stroke-width="1" points="416.5,470.5 336.5,473.5 379.5,693.5" style="fill:#45923b;stroke:#45923b;"></polygon><polygon stroke-linejoin="round" stroke-miterlimit="1" stroke-width="1" points="436.5,238.5 328.5,181.5 398.5,242.5" style="fill:#65b25b;stroke:#65b25b;"></polygon><polygon stroke-linejoin="round" stroke-miterlimit="1" stroke-width="1" points="469.5,926.5 361.5,841.5 318.5,926.5" style="fill:#2e7b24;stroke:#2e7b24;"></polygon><polygon stroke-linejoin="round" stroke-miterlimit="1" stroke-width="1" points="469.5,-38.5 291.5,-38.5 303.5,8.5" style="fill:#4e9c45;stroke:#4e9c45;"></polygon><polygon stroke-linejoin="round" stroke-miterlimit="1" stroke-width="1" points="467.5,765.5 379.5,693.5 361.5,841.5" style="fill:#36832c;stroke:#36832c;"></polygon><polygon stroke-linejoin="round" stroke-miterlimit="1" stroke-width="1" points="379.5,693.5 291.5,754.5 361.5,841.5" style="fill:#33812a;stroke:#33812a;"></polygon><polygon stroke-linejoin="round" stroke-miterlimit="1" stroke-width="1" points="414.5,315.5 372.5,353.5 394.5,380.5" style="fill:#5ca952;stroke:#5ca952;"></polygon><polygon stroke-linejoin="round" stroke-miterlimit="1" stroke-width="1" points="422.5,468.5 394.5,380.5 416.5,470.5" style="fill:#53a049;stroke:#53a049;"></polygon><polygon stroke-linejoin="round" stroke-miterlimit="1" stroke-width="1" points="436.5,238.5 398.5,242.5 417.5,291.5" style="fill:#62b059;stroke:#62b059;"></polygon><polygon stroke-linejoin="round" stroke-miterlimit="1" stroke-width="1" points="379.5,693.5 336.5,473.5 194.5,530.5" style="fill:#418f38;stroke:#418f38;"></polygon><polygon stroke-linejoin="round" stroke-miterlimit="1" stroke-width="1" points="416.5,470.5 394.5,380.5 336.5,473.5" style="fill:#519f48;stroke:#519f48;"></polygon><polygon stroke-linejoin="round" stroke-miterlimit="1" stroke-width="1" points="417.5,291.5 372.5,353.5 414.5,315.5" style="fill:#5ca952;stroke:#5ca952;"></polygon><polygon stroke-linejoin="round" stroke-miterlimit="1" stroke-width="1" points="417.5,291.5 398.5,242.5 372.5,353.5" style="fill:#60ad56;stroke:#60ad56;"></polygon><polygon stroke-linejoin="round" stroke-miterlimit="1" stroke-width="1" points="398.5,242.5 292.5,333.5 372.5,353.5" style="fill:#5daa53;stroke:#5daa53;"></polygon><polygon stroke-linejoin="round" stroke-miterlimit="1" stroke-width="1" points="328.5,181.5 303.5,8.5 266.5,169.5" style="fill:#58a54e;stroke:#58a54e;"></polygon><polygon stroke-linejoin="round" stroke-miterlimit="1" stroke-width="1" points="361.5,841.5 307.5,865.5 318.5,926.5" style="fill:#317e27;stroke:#317e27;"></polygon><polygon stroke-linejoin="round" stroke-miterlimit="1" stroke-width="1" points="379.5,693.5 194.5,530.5 170.5,667.5" style="fill:#3b8932;stroke:#3b8932;"></polygon><polygon stroke-linejoin="round" stroke-miterlimit="1" stroke-width="1" points="394.5,380.5 372.5,353.5 297.5,362.5" style="fill:#57a44d;stroke:#57a44d;"></polygon><polygon stroke-linejoin="round" stroke-miterlimit="1" stroke-width="1" points="394.5,380.5 297.5,362.5 336.5,473.5" style="fill:#52a049;stroke:#52a049;"></polygon><polygon stroke-linejoin="round" stroke-miterlimit="1" stroke-width="1" points="398.5,242.5 328.5,181.5 292.5,333.5" style="fill:#5eac55;stroke:#5eac55;"></polygon><polygon stroke-linejoin="round" stroke-miterlimit="1" stroke-width="1" points="328.5,181.5 230.5,245.5 292.5,333.5" style="fill:#57a44d;stroke:#57a44d;"></polygon><polygon stroke-linejoin="round" stroke-miterlimit="1" stroke-width="1" points="379.5,693.5 170.5,667.5 291.5,754.5" style="fill:#35832b;stroke:#35832b;"></polygon><polygon stroke-linejoin="round" stroke-miterlimit="1" stroke-width="1" points="361.5,841.5 291.5,754.5 307.5,865.5" style="fill:#307e27;stroke:#307e27;"></polygon><polygon stroke-linejoin="round" stroke-miterlimit="1" stroke-width="1" points="372.5,353.5 292.5,333.5 297.5,362.5" style="fill:#57a54e;stroke:#57a54e;"></polygon><polygon stroke-linejoin="round" stroke-miterlimit="1" stroke-width="1" points="307.5,865.5 291.5,754.5 216.5,822.5" style="fill:#327f28;stroke:#327f28;"></polygon><polygon stroke-linejoin="round" stroke-miterlimit="1" stroke-width="1" points="318.5,926.5 307.5,865.5 295.5,871.5" style="fill:#2b7821;stroke:#2b7821;"></polygon><polygon stroke-linejoin="round" stroke-miterlimit="1" stroke-width="1" points="328.5,181.5 266.5,169.5 230.5,245.5" style="fill:#57a44d;stroke:#57a44d;"></polygon><polygon stroke-linejoin="round" stroke-miterlimit="1" stroke-width="1" points="336.5,473.5 297.5,362.5 181.5,468.5" style="fill:#4b9942;stroke:#4b9942;"></polygon><polygon stroke-linejoin="round" stroke-miterlimit="1" stroke-width="1" points="336.5,473.5 181.5,468.5 194.5,530.5" style="fill:#44913a;stroke:#44913a;"></polygon><polygon stroke-linejoin="round" stroke-miterlimit="1" stroke-width="1" points="297.5,362.5 182.5,380.5 181.5,468.5" style="fill:#48963f;stroke:#48963f;"></polygon><polygon stroke-linejoin="round" stroke-miterlimit="1" stroke-width="1" points="297.5,362.5 292.5,333.5 292.5,355.5" style="fill:#61ae57;stroke:#61ae57;"></polygon><polygon stroke-linejoin="round" stroke-miterlimit="1" stroke-width="1" points="303.5,8.5 150.5,104.5 266.5,169.5" style="fill:#529f48;stroke:#529f48;"></polygon><polygon stroke-linejoin="round" stroke-miterlimit="1" stroke-width="1" points="307.5,865.5 216.5,822.5 295.5,871.5" style="fill:#2e7c24;stroke:#2e7c24;"></polygon><polygon stroke-linejoin="round" stroke-miterlimit="1" stroke-width="1" points="318.5,926.5 295.5,871.5 271.5,914.5" style="fill:#2b7922;stroke:#2b7922;"></polygon><polygon stroke-linejoin="round" stroke-miterlimit="1" stroke-width="1" points="266.5,169.5 234.5,187.5 230.5,245.5" style="fill:#52a049;stroke:#52a049;"></polygon><polygon stroke-linejoin="round" stroke-miterlimit="1" stroke-width="1" points="271.5,914.5 212.5,875.5 142.5,870.5" style="fill:#34822b;stroke:#34822b;"></polygon><polygon stroke-linejoin="round" stroke-miterlimit="1" stroke-width="1" points="297.5,362.5 292.5,355.5 182.5,380.5" style="fill:#54a24b;stroke:#54a24b;"></polygon><polygon stroke-linejoin="round" stroke-miterlimit="1" stroke-width="1" points="303.5,8.5 125.5,5.5 150.5,104.5" style="fill:#48963f;stroke:#48963f;"></polygon><polygon stroke-linejoin="round" stroke-miterlimit="1" stroke-width="1" points="303.5,8.5 291.5,-38.5 141.5,-38.5" style="fill:#48953e;stroke:#48953e;"></polygon><polygon stroke-linejoin="round" stroke-miterlimit="1" stroke-width="1" points="303.5,8.5 141.5,-38.5 125.5,5.5" style="fill:#45933b;stroke:#45933b;"></polygon><polygon stroke-linejoin="round" stroke-miterlimit="1" stroke-width="1" points="295.5,871.5 216.5,822.5 212.5,875.5" style="fill:#2b7922;stroke:#2b7922;"></polygon><polygon stroke-linejoin="round" stroke-miterlimit="1" stroke-width="1" points="295.5,871.5 212.5,875.5 271.5,914.5" style="fill:#2b7922;stroke:#2b7922;"></polygon><polygon stroke-linejoin="round" stroke-miterlimit="1" stroke-width="1" points="291.5,754.5 170.5,667.5 216.5,822.5" style="fill:#327f28;stroke:#327f28;"></polygon><polygon stroke-linejoin="round" stroke-miterlimit="1" stroke-width="1" points="292.5,333.5 182.5,380.5 292.5,355.5" style="fill:#4e9c45;stroke:#4e9c45;"></polygon><polygon stroke-linejoin="round" stroke-miterlimit="1" stroke-width="1" points="292.5,333.5 230.5,245.5 182.5,380.5" style="fill:#4f9c45;stroke:#4f9c45;"></polygon><polygon stroke-linejoin="round" stroke-miterlimit="1" stroke-width="1" points="266.5,169.5 150.5,104.5 234.5,187.5" style="fill:#509e47;stroke:#509e47;"></polygon><polygon stroke-linejoin="round" stroke-miterlimit="1" stroke-width="1" points="194.5,530.5 181.5,468.5 185.5,522.5" style="fill:#44913a;stroke:#44913a;"></polygon><polygon stroke-linejoin="round" stroke-miterlimit="1" stroke-width="1" points="182.5,380.5 157.5,427.5 181.5,468.5" style="fill:#45923b;stroke:#45923b;"></polygon><polygon stroke-linejoin="round" stroke-miterlimit="1" stroke-width="1" points="194.5,530.5 115.5,580.5 170.5,667.5" style="fill:#38862f;stroke:#38862f;"></polygon><polygon stroke-linejoin="round" stroke-miterlimit="1" stroke-width="1" points="230.5,245.5 111.5,287.5 182.5,380.5" style="fill:#4a9841;stroke:#4a9841;"></polygon><polygon stroke-linejoin="round" stroke-miterlimit="1" stroke-width="1" points="234.5,187.5 104.5,201.5 230.5,245.5" style="fill:#4e9b44;stroke:#4e9b44;"></polygon><polygon stroke-linejoin="round" stroke-miterlimit="1" stroke-width="1" points="234.5,187.5 150.5,104.5 104.5,201.5" style="fill:#4a9740;stroke:#4a9740;"></polygon><polygon stroke-linejoin="round" stroke-miterlimit="1" stroke-width="1" points="216.5,822.5 170.5,667.5 142.5,870.5" style="fill:#317f28;stroke:#317f28;"></polygon><polygon stroke-linejoin="round" stroke-miterlimit="1" stroke-width="1" points="230.5,245.5 104.5,201.5 111.5,287.5" style="fill:#48963f;stroke:#48963f;"></polygon><polygon stroke-linejoin="round" stroke-miterlimit="1" stroke-width="1" points="216.5,822.5 142.5,870.5 212.5,875.5" style="fill:#2c7922;stroke:#2c7922;"></polygon><polygon stroke-linejoin="round" stroke-miterlimit="1" stroke-width="1" points="170.5,667.5 -29.5,735.5 142.5,870.5" style="fill:#307d26;stroke:#307d26;"></polygon><polygon stroke-linejoin="round" stroke-miterlimit="1" stroke-width="1" points="170.5,667.5 4.5,665.5 -29.5,735.5" style="fill:#327f28;stroke:#327f28;"></polygon><polygon stroke-linejoin="round" stroke-miterlimit="1" stroke-width="1" points="185.5,522.5 181.5,468.5 174.5,520.5" style="fill:#34822a;stroke:#34822a;"></polygon><polygon stroke-linejoin="round" stroke-miterlimit="1" stroke-width="1" points="194.5,530.5 185.5,522.5 174.5,520.5" style="fill:#2b7821;stroke:#2b7821;"></polygon><polygon stroke-linejoin="round" stroke-miterlimit="1" stroke-width="1" points="194.5,530.5 174.5,520.5 115.5,580.5" style="fill:#3d8a33;stroke:#3d8a33;"></polygon><polygon stroke-linejoin="round" stroke-miterlimit="1" stroke-width="1" points="181.5,468.5 135.5,436.5 174.5,520.5" style="fill:#44913a;stroke:#44913a;"></polygon><polygon stroke-linejoin="round" stroke-miterlimit="1" stroke-width="1" points="181.5,468.5 157.5,427.5 135.5,436.5" style="fill:#439039;stroke:#439039;"></polygon><polygon stroke-linejoin="round" stroke-miterlimit="1" stroke-width="1" points="182.5,380.5 135.5,436.5 157.5,427.5" style="fill:#47953e;stroke:#47953e;"></polygon><polygon stroke-linejoin="round" stroke-miterlimit="1" stroke-width="1" points="182.5,380.5 111.5,287.5 135.5,436.5" style="fill:#45933c;stroke:#45933c;"></polygon><polygon stroke-linejoin="round" stroke-miterlimit="1" stroke-width="1" points="174.5,520.5 135.5,436.5 115.5,580.5" style="fill:#3d8a33;stroke:#3d8a33;"></polygon><polygon stroke-linejoin="round" stroke-miterlimit="1" stroke-width="1" points="135.5,436.5 14.5,529.5 115.5,580.5" style="fill:#3a8830;stroke:#3a8830;"></polygon><polygon stroke-linejoin="round" stroke-miterlimit="1" stroke-width="1" points="170.5,667.5 115.5,580.5 11.5,647.5" style="fill:#33812a;stroke:#33812a;"></polygon><polygon stroke-linejoin="round" stroke-miterlimit="1" stroke-width="1" points="170.5,667.5 11.5,647.5 4.5,665.5" style="fill:#3b8932;stroke:#3b8932;"></polygon><polygon stroke-linejoin="round" stroke-miterlimit="1" stroke-width="1" points="115.5,580.5 14.5,529.5 37.5,571.5" style="fill:#37842d;stroke:#37842d;"></polygon><polygon stroke-linejoin="round" stroke-miterlimit="1" stroke-width="1" points="135.5,436.5 111.5,287.5 -57.5,322.5" style="fill:#3f8d35;stroke:#3f8d35;"></polygon><polygon stroke-linejoin="round" stroke-miterlimit="1" stroke-width="1" points="150.5,104.5 125.5,5.5 -9.5,148.5" style="fill:#418e37;stroke:#418e37;"></polygon><polygon stroke-linejoin="round" stroke-miterlimit="1" stroke-width="1" points="150.5,104.5 -9.5,148.5 104.5,201.5" style="fill:#439039;stroke:#439039;"></polygon><polygon stroke-linejoin="round" stroke-miterlimit="1" stroke-width="1" points="142.5,870.5 -29.5,735.5 -99.5,832.5" style="fill:#2c7a23;stroke:#2c7a23;"></polygon><polygon stroke-linejoin="round" stroke-miterlimit="1" stroke-width="1" points="142.5,870.5 -99.5,832.5 -127.5,926.5" style="fill:#29761f;stroke:#29761f;"></polygon><polygon stroke-linejoin="round" stroke-miterlimit="1" stroke-width="1" points="141.5,-38.5 -36.5,-38.5 125.5,5.5" style="fill:#3d8b34;stroke:#3d8b34;"></polygon><polygon stroke-linejoin="round" stroke-miterlimit="1" stroke-width="1" points="135.5,436.5 -57.5,322.5 14.5,529.5" style="fill:#3a8831;stroke:#3a8831;"></polygon><polygon stroke-linejoin="round" stroke-miterlimit="1" stroke-width="1" points="115.5,580.5 37.5,571.5 11.5,647.5" style="fill:#36842d;stroke:#36842d;"></polygon><polygon stroke-linejoin="round" stroke-miterlimit="1" stroke-width="1" points="125.5,5.5 -36.5,-38.5 -9.5,148.5" style="fill:#3b8932;stroke:#3b8932;"></polygon><polygon stroke-linejoin="round" stroke-miterlimit="1" stroke-width="1" points="-9.5,148.5 -36.5,-38.5 -83.5,28.5" style="fill:#38852e;stroke:#38852e;"></polygon><polygon stroke-linejoin="round" stroke-miterlimit="1" stroke-width="1" points="104.5,201.5 -9.5,148.5 -57.5,322.5" style="fill:#3d8b34;stroke:#3d8b34;"></polygon><polygon stroke-linejoin="round" stroke-miterlimit="1" stroke-width="1" points="111.5,287.5 104.5,201.5 -57.5,322.5" style="fill:#408d36;stroke:#408d36;"></polygon><polygon stroke-linejoin="round" stroke-miterlimit="1" stroke-width="1" points="-9.5,148.5 -83.5,28.5 -81.5,86.5" style="fill:#328029;stroke:#328029;"></polygon><polygon stroke-linejoin="round" stroke-miterlimit="1" stroke-width="1" points="-99.5,832.5 -127.5,887.5 -127.5,926.5" style="fill:#216f18;stroke:#216f18;"></polygon><polygon stroke-linejoin="round" stroke-miterlimit="1" stroke-width="1" points="-57.5,322.5 -93.5,211.5 -87.5,290.5" style="fill:#2d7a23;stroke:#2d7a23;"></polygon><polygon stroke-linejoin="round" stroke-miterlimit="1" stroke-width="1" points="-9.5,148.5 -93.5,211.5 -57.5,322.5" style="fill:#37852e;stroke:#37852e;"></polygon><polygon stroke-linejoin="round" stroke-miterlimit="1" stroke-width="1" points="14.5,529.5 -57.5,322.5 -127.5,434.5" style="fill:#36842d;stroke:#36842d;"></polygon><polygon stroke-linejoin="round" stroke-miterlimit="1" stroke-width="1" points="14.5,529.5 -127.5,434.5 -127.5,444.5" style="fill:#36842d;stroke:#36842d;"></polygon><polygon stroke-linejoin="round" stroke-miterlimit="1" stroke-width="1" points="14.5,529.5 -127.5,444.5 -120.5,487.5" style="fill:#35832c;stroke:#35832c;"></polygon><polygon stroke-linejoin="round" stroke-miterlimit="1" stroke-width="1" points="37.5,571.5 14.5,529.5 1.5,573.5" style="fill:#328029;stroke:#328029;"></polygon><polygon stroke-linejoin="round" stroke-miterlimit="1" stroke-width="1" points="37.5,571.5 1.5,573.5 11.5,647.5" style="fill:#338029;stroke:#338029;"></polygon><polygon stroke-linejoin="round" stroke-miterlimit="1" stroke-width="1" points="-57.5,322.5 -127.5,378.5 -127.5,434.5" style="fill:#36832c;stroke:#36832c;"></polygon><polygon stroke-linejoin="round" stroke-miterlimit="1" stroke-width="1" points="11.5,647.5 1.5,573.5 -72.5,601.5" style="fill:#317e27;stroke:#317e27;"></polygon><polygon stroke-linejoin="round" stroke-miterlimit="1" stroke-width="1" points="14.5,529.5 -72.5,601.5 1.5,573.5" style="fill:#34812a;stroke:#34812a;"></polygon><polygon stroke-linejoin="round" stroke-miterlimit="1" stroke-width="1" points="14.5,529.5 -120.5,487.5 -72.5,601.5" style="fill:#338029;stroke:#338029;"></polygon><polygon stroke-linejoin="round" stroke-miterlimit="1" stroke-width="1" points="11.5,647.5 -72.5,601.5 4.5,665.5" style="fill:#35822b;stroke:#35822b;"></polygon><polygon stroke-linejoin="round" stroke-miterlimit="1" stroke-width="1" points="4.5,665.5 -72.5,601.5 -29.5,735.5" style="fill:#2d7a23;stroke:#2d7a23;"></polygon><polygon stroke-linejoin="round" stroke-miterlimit="1" stroke-width="1" points="-72.5,601.5 -120.5,487.5 -127.5,568.5" style="fill:#2c7922;stroke:#2c7922;"></polygon><polygon stroke-linejoin="round" stroke-miterlimit="1" stroke-width="1" points="-29.5,735.5 -72.5,601.5 -126.5,614.5" style="fill:#2c7a23;stroke:#2c7a23;"></polygon><polygon stroke-linejoin="round" stroke-miterlimit="1" stroke-width="1" points="-9.5,148.5 -81.5,86.5 -93.5,211.5" style="fill:#398730;stroke:#398730;"></polygon><polygon stroke-linejoin="round" stroke-miterlimit="1" stroke-width="1" points="-81.5,86.5 -83.5,28.5 -92.5,40.5" style="fill:#398730;stroke:#398730;"></polygon><polygon stroke-linejoin="round" stroke-miterlimit="1" stroke-width="1" points="-29.5,735.5 -126.5,614.5 -99.5,832.5" style="fill:#2d7a23;stroke:#2d7a23;"></polygon><polygon stroke-linejoin="round" stroke-miterlimit="1" stroke-width="1" points="-36.5,-38.5 -127.5,-38.5 -83.5,28.5" style="fill:#36842d;stroke:#36842d;"></polygon><polygon stroke-linejoin="round" stroke-miterlimit="1" stroke-width="1" points="-87.5,290.5 -93.5,211.5 -127.5,247.5" style="fill:#37852e;stroke:#37852e;"></polygon><polygon stroke-linejoin="round" stroke-miterlimit="1" stroke-width="1" points="-57.5,322.5 -87.5,290.5 -127.5,312.5" style="fill:#38862f;stroke:#38862f;"></polygon><polygon stroke-linejoin="round" stroke-miterlimit="1" stroke-width="1" points="-57.5,322.5 -127.5,312.5 -127.5,378.5" style="fill:#35822b;stroke:#35822b;"></polygon><polygon stroke-linejoin="round" stroke-miterlimit="1" stroke-width="1" points="-93.5,211.5 -120.5,53.5 -127.5,241.5" style="fill:#37852d;stroke:#37852d;"></polygon><polygon stroke-linejoin="round" stroke-miterlimit="1" stroke-width="1" points="-93.5,211.5 -127.5,241.5 -127.5,247.5" style="fill:#24721b;stroke:#24721b;"></polygon><polygon stroke-linejoin="round" stroke-miterlimit="1" stroke-width="1" points="-81.5,86.5 -92.5,40.5 -120.5,53.5" style="fill:#3b8932;stroke:#3b8932;"></polygon><polygon stroke-linejoin="round" stroke-miterlimit="1" stroke-width="1" points="-81.5,86.5 -120.5,53.5 -93.5,211.5" style="fill:#35822b;stroke:#35822b;"></polygon><polygon stroke-linejoin="round" stroke-miterlimit="1" stroke-width="1" points="-72.5,601.5 -127.5,568.5 -126.5,614.5" style="fill:#328029;stroke:#328029;"></polygon><polygon stroke-linejoin="round" stroke-miterlimit="1" stroke-width="1" points="-92.5,40.5 -127.5,-38.5 -120.5,53.5" style="fill:#38862f;stroke:#38862f;"></polygon><polygon stroke-linejoin="round" stroke-miterlimit="1" stroke-width="1" points="-83.5,28.5 -127.5,-38.5 -92.5,40.5" style="fill:#2a7821;stroke:#2a7821;"></polygon><polygon stroke-linejoin="round" stroke-miterlimit="1" stroke-width="1" points="-99.5,832.5 -126.5,614.5 -127.5,887.5" style="fill:#25721b;stroke:#25721b;"></polygon><polygon stroke-linejoin="round" stroke-miterlimit="1" stroke-width="1" points="-87.5,290.5 -127.5,247.5 -127.5,312.5" style="fill:#36832c;stroke:#36832c;"></polygon><polygon stroke-linejoin="round" stroke-miterlimit="1" stroke-width="1" points="-120.5,487.5 -127.5,444.5 -127.5,568.5" style="fill:#429039;stroke:#429039;"></polygon><polygon stroke-linejoin="round" stroke-miterlimit="1" stroke-width="1" points="-120.5,53.5 -127.5,-38.5 -127.5,241.5" style="fill:#35832c;stroke:#35832c;"></polygon><polygon stroke-linejoin="round" stroke-miterlimit="1" stroke-width="1" points="-126.5,614.5 -127.5,568.5 -127.5,887.5" style="fill:#4c9a43;stroke:#4c9a43;"></polygon></svg>