
      <svg xmlns="http://www.w3.org/2000/svg" version="1.1" style="display: block;" width="800" height="1500"><polygon stroke-linejoin="round" stroke-miterlimit="1" stroke-width="1" points="380,1721 367,1721 333,1721" style="fill:#464646;stroke:#464646;"></polygon><polygon stroke-linejoin="round" stroke-miterlimit="1" stroke-width="1" points="546,1721 541,1594 518,1609" style="fill:#525252;stroke:#525252;"></polygon><polygon stroke-linejoin="round" stroke-miterlimit="1" stroke-width="1" points="570,159 520,2 485,83" style="fill:#b4b4b4;stroke:#b4b4b4;"></polygon><polygon stroke-linejoin="round" stroke-miterlimit="1" stroke-width="1" points="571,1203 510,1276 548,1332" style="fill:#555555;stroke:#555555;"></polygon><polygon stroke-linejoin="round" stroke-miterlimit="1" stroke-width="1" points="571,260 531,322 555,389" style="fill:#787878;stroke:#787878;"></polygon><polygon stroke-linejoin="round" stroke-miterlimit="1" stroke-width="1" points="583,1487 521,1562 541,1594" style="fill:#535353;stroke:#535353;"></polygon><polygon stroke-linejoin="round" stroke-miterlimit="1" stroke-width="1" points="583,1487 524,1518 521,1562" style="fill:#535353;stroke:#535353;"></polygon><polygon stroke-linejoin="round" stroke-miterlimit="1" stroke-width="1" points="583,1487 548,1332 477,1391" style="fill:#545454;stroke:#545454;"></polygon><polygon stroke-linejoin="round" stroke-miterlimit="1" stroke-width="1" points="587,520 555,389 531,394" style="fill:#6e6e6e;stroke:#6e6e6e;"></polygon><polygon stroke-linejoin="round" stroke-miterlimit="1" stroke-width="1" points="593,920 583,779 537,800" style="fill:#5d5d5d;stroke:#5d5d5d;"></polygon><polygon stroke-linejoin="round" stroke-miterlimit="1" stroke-width="1" points="593,920 537,800 515,860" style="fill:#5c5c5c;stroke:#5c5c5c;"></polygon><polygon stroke-linejoin="round" stroke-miterlimit="1" stroke-width="1" points="611,1138 577,959 465,1047" style="fill:#585858;stroke:#585858;"></polygon><polygon stroke-linejoin="round" stroke-miterlimit="1" stroke-width="1" points="611,1138 465,1047 544,1150" style="fill:#575757;stroke:#575757;"></polygon><polygon stroke-linejoin="round" stroke-miterlimit="1" stroke-width="1" points="611,1138 544,1150 571,1203" style="fill:#575757;stroke:#575757;"></polygon><polygon stroke-linejoin="round" stroke-miterlimit="1" stroke-width="1" points="611,1138 548,1332 583,1487" style="fill:#555555;stroke:#555555;"></polygon><polygon stroke-linejoin="round" stroke-miterlimit="1" stroke-width="1" points="611,1138 571,1203 548,1332" style="fill:#565656;stroke:#565656;"></polygon><polygon stroke-linejoin="round" stroke-miterlimit="1" stroke-width="1" points="611,152 569,231 571,260" style="fill:#878787;stroke:#878787;"></polygon><polygon stroke-linejoin="round" stroke-miterlimit="1" stroke-width="1" points="611,152 570,159 569,231" style="fill:#8e8e8e;stroke:#8e8e8e;"></polygon><polygon stroke-linejoin="round" stroke-miterlimit="1" stroke-width="1" points="611,152 595,-20 520,2" style="fill:#c6c6c6;stroke:#c6c6c6;"></polygon><polygon stroke-linejoin="round" stroke-miterlimit="1" stroke-width="1" points="611,152 520,2 570,159" style="fill:#a7a7a7;stroke:#a7a7a7;"></polygon><polygon stroke-linejoin="round" stroke-miterlimit="1" stroke-width="1" points="611,-142 574,-224 517,-170" style="fill:#b5b5b5;stroke:#b5b5b5;"></polygon><polygon stroke-linejoin="round" stroke-miterlimit="1" stroke-width="1" points="611,-142 527,-29 595,-20" style="fill:#ffffff;stroke:#ffffff;"></polygon><polygon stroke-linejoin="round" stroke-miterlimit="1" stroke-width="1" points="611,-142 517,-170 527,-29" style="fill:#e7e7e7;stroke:#e7e7e7;"></polygon><polygon stroke-linejoin="round" stroke-miterlimit="1" stroke-width="1" points="611,-142 595,-20 611,152" style="fill:#fcfcfc;stroke:#fcfcfc;"></polygon><polygon stroke-linejoin="round" stroke-miterlimit="1" stroke-width="1" points="611,945 593,920 571,942" style="fill:#5a5a5a;stroke:#5a5a5a;"></polygon><polygon stroke-linejoin="round" stroke-miterlimit="1" stroke-width="1" points="611,945 571,942 577,959" style="fill:#5a5a5a;stroke:#5a5a5a;"></polygon><polygon stroke-linejoin="round" stroke-miterlimit="1" stroke-width="1" points="611,945 577,959 611,1138" style="fill:#595959;stroke:#595959;"></polygon><polygon stroke-linejoin="round" stroke-miterlimit="1" stroke-width="1" points="611,510 587,520 611,513" style="fill:#686868;stroke:#686868;"></polygon><polygon stroke-linejoin="round" stroke-miterlimit="1" stroke-width="1" points="611,510 555,389 587,520" style="fill:#6b6b6b;stroke:#6b6b6b;"></polygon><polygon stroke-linejoin="round" stroke-miterlimit="1" stroke-width="1" points="611,510 571,260 555,389" style="fill:#727272;stroke:#727272;"></polygon><polygon stroke-linejoin="round" stroke-miterlimit="1" stroke-width="1" points="611,510 611,152 571,260" style="fill:#797979;stroke:#797979;"></polygon><polygon stroke-linejoin="round" stroke-miterlimit="1" stroke-width="1" points="611,594 611,513 587,520" style="fill:#676767;stroke:#676767;"></polygon><polygon stroke-linejoin="round" stroke-miterlimit="1" stroke-width="1" points="611,594 587,520 531,579" style="fill:#666666;stroke:#666666;"></polygon><polygon stroke-linejoin="round" stroke-miterlimit="1" stroke-width="1" points="611,594 531,579 527,663" style="fill:#646464;stroke:#646464;"></polygon><polygon stroke-linejoin="round" stroke-miterlimit="1" stroke-width="1" points="611,1721 583,1487 541,1594" style="fill:#525252;stroke:#525252;"></polygon><polygon stroke-linejoin="round" stroke-miterlimit="1" stroke-width="1" points="611,1721 541,1594 546,1721" style="fill:#525252;stroke:#525252;"></polygon><polygon stroke-linejoin="round" stroke-miterlimit="1" stroke-width="1" points="611,1721 611,1138 583,1487" style="fill:#545454;stroke:#545454;"></polygon><polygon stroke-linejoin="round" stroke-miterlimit="1" stroke-width="1" points="611,749 499,734 583,779" style="fill:#5f5f5f;stroke:#5f5f5f;"></polygon><polygon stroke-linejoin="round" stroke-miterlimit="1" stroke-width="1" points="611,749 527,663 499,734" style="fill:#606060;stroke:#606060;"></polygon><polygon stroke-linejoin="round" stroke-miterlimit="1" stroke-width="1" points="611,749 593,920 611,945" style="fill:#5c5c5c;stroke:#5c5c5c;"></polygon><polygon stroke-linejoin="round" stroke-miterlimit="1" stroke-width="1" points="611,749 583,779 593,920" style="fill:#5d5d5d;stroke:#5d5d5d;"></polygon><polygon stroke-linejoin="round" stroke-miterlimit="1" stroke-width="1" points="611,749 611,594 527,663" style="fill:#626262;stroke:#626262;"></polygon><polygon stroke-linejoin="round" stroke-miterlimit="1" stroke-width="1" points="611,-224 574,-224 611,-142" style="fill:#a9a9a9;stroke:#a9a9a9;"></polygon><polygon stroke-linejoin="round" stroke-miterlimit="1" stroke-width="1" points="583,1487 477,1391 524,1518" style="fill:#535353;stroke:#535353;"></polygon><polygon stroke-linejoin="round" stroke-miterlimit="1" stroke-width="1" points="593,920 515,860 566,941" style="fill:#5b5b5b;stroke:#5b5b5b;"></polygon><polygon stroke-linejoin="round" stroke-miterlimit="1" stroke-width="1" points="595,-20 527,-29 520,2" style="fill:#f7f7f7;stroke:#f7f7f7;"></polygon><polygon stroke-linejoin="round" stroke-miterlimit="1" stroke-width="1" points="570,159 542,233 569,231" style="fill:#8a8a8a;stroke:#8a8a8a;"></polygon><polygon stroke-linejoin="round" stroke-miterlimit="1" stroke-width="1" points="587,520 531,394 407,456" style="fill:#6d6d6d;stroke:#6d6d6d;"></polygon><polygon stroke-linejoin="round" stroke-miterlimit="1" stroke-width="1" points="593,920 566,941 571,942" style="fill:#5a5a5a;stroke:#5a5a5a;"></polygon><polygon stroke-linejoin="round" stroke-miterlimit="1" stroke-width="1" points="583,779 499,734 537,800" style="fill:#5f5f5f;stroke:#5f5f5f;"></polygon><polygon stroke-linejoin="round" stroke-miterlimit="1" stroke-width="1" points="587,520 407,456 531,579" style="fill:#696969;stroke:#696969;"></polygon><polygon stroke-linejoin="round" stroke-miterlimit="1" stroke-width="1" points="524,1518 477,1391 447,1436" style="fill:#545454;stroke:#545454;"></polygon><polygon stroke-linejoin="round" stroke-miterlimit="1" stroke-width="1" points="546,1721 518,1609 511,1721" style="fill:#525252;stroke:#525252;"></polygon><polygon stroke-linejoin="round" stroke-miterlimit="1" stroke-width="1" points="577,959 566,941 465,1047" style="fill:#5a5a5a;stroke:#5a5a5a;"></polygon><polygon stroke-linejoin="round" stroke-miterlimit="1" stroke-width="1" points="577,959 571,942 566,941" style="fill:#5a5a5a;stroke:#5a5a5a;"></polygon><polygon stroke-linejoin="round" stroke-miterlimit="1" stroke-width="1" points="566,941 455,914 465,1047" style="fill:#5a5a5a;stroke:#5a5a5a;"></polygon><polygon stroke-linejoin="round" stroke-miterlimit="1" stroke-width="1" points="571,260 569,231 542,233" style="fill:#848484;stroke:#848484;"></polygon><polygon stroke-linejoin="round" stroke-miterlimit="1" stroke-width="1" points="574,-224 487,-224 517,-170" style="fill:#a8a8a8;stroke:#a8a8a8;"></polygon><polygon stroke-linejoin="round" stroke-miterlimit="1" stroke-width="1" points="527,-29 517,-170 430,-68" style="fill:#e4e4e4;stroke:#e4e4e4;"></polygon><polygon stroke-linejoin="round" stroke-miterlimit="1" stroke-width="1" points="555,389 531,322 531,394" style="fill:#747474;stroke:#747474;"></polygon><polygon stroke-linejoin="round" stroke-miterlimit="1" stroke-width="1" points="570,159 493,238 542,233" style="fill:#8a8a8a;stroke:#8a8a8a;"></polygon><polygon stroke-linejoin="round" stroke-miterlimit="1" stroke-width="1" points="571,260 542,233 531,322" style="fill:#7f7f7f;stroke:#7f7f7f;"></polygon><polygon stroke-linejoin="round" stroke-miterlimit="1" stroke-width="1" points="566,941 515,860 455,914" style="fill:#5b5b5b;stroke:#5b5b5b;"></polygon><polygon stroke-linejoin="round" stroke-miterlimit="1" stroke-width="1" points="571,1203 544,1150 510,1276" style="fill:#565656;stroke:#565656;"></polygon><polygon stroke-linejoin="round" stroke-miterlimit="1" stroke-width="1" points="570,159 485,83 493,238" style="fill:#979797;stroke:#979797;"></polygon><polygon stroke-linejoin="round" stroke-miterlimit="1" stroke-width="1" points="493,238 485,83 424,198" style="fill:#959595;stroke:#959595;"></polygon><polygon stroke-linejoin="round" stroke-miterlimit="1" stroke-width="1" points="531,394 474,383 407,456" style="fill:#717171;stroke:#717171;"></polygon><polygon stroke-linejoin="round" stroke-miterlimit="1" stroke-width="1" points="542,233 493,238 531,322" style="fill:#818181;stroke:#818181;"></polygon><polygon stroke-linejoin="round" stroke-miterlimit="1" stroke-width="1" points="510,1276 329,1186 454,1301" style="fill:#565656;stroke:#565656;"></polygon><polygon stroke-linejoin="round" stroke-miterlimit="1" stroke-width="1" points="527,-29 430,-68 467,-22" style="fill:#fdfdfd;stroke:#fdfdfd;"></polygon><polygon stroke-linejoin="round" stroke-miterlimit="1" stroke-width="1" points="531,394 531,322 474,383" style="fill:#757575;stroke:#757575;"></polygon><polygon stroke-linejoin="round" stroke-miterlimit="1" stroke-width="1" points="531,579 407,456 394,579" style="fill:#686868;stroke:#686868;"></polygon><polygon stroke-linejoin="round" stroke-miterlimit="1" stroke-width="1" points="537,800 499,734 474,773" style="fill:#5f5f5f;stroke:#5f5f5f;"></polygon><polygon stroke-linejoin="round" stroke-miterlimit="1" stroke-width="1" points="544,1150 329,1186 510,1276" style="fill:#565656;stroke:#565656;"></polygon><polygon stroke-linejoin="round" stroke-miterlimit="1" stroke-width="1" points="548,1332 510,1276 454,1301" style="fill:#555555;stroke:#555555;"></polygon><polygon stroke-linejoin="round" stroke-miterlimit="1" stroke-width="1" points="548,1332 454,1301 477,1391" style="fill:#555555;stroke:#555555;"></polygon><polygon stroke-linejoin="round" stroke-miterlimit="1" stroke-width="1" points="518,1609 455,1721 511,1721" style="fill:#525252;stroke:#525252;"></polygon><polygon stroke-linejoin="round" stroke-miterlimit="1" stroke-width="1" points="520,2 480,3 485,83" style="fill:#d2d2d2;stroke:#d2d2d2;"></polygon><polygon stroke-linejoin="round" stroke-miterlimit="1" stroke-width="1" points="544,1150 465,1047 329,1186" style="fill:#575757;stroke:#575757;"></polygon><polygon stroke-linejoin="round" stroke-miterlimit="1" stroke-width="1" points="541,1594 521,1562 518,1609" style="fill:#525252;stroke:#525252;"></polygon><polygon stroke-linejoin="round" stroke-miterlimit="1" stroke-width="1" points="531,579 394,579 527,663" style="fill:#656565;stroke:#656565;"></polygon><polygon stroke-linejoin="round" stroke-miterlimit="1" stroke-width="1" points="465,1047 361,1068 329,1186" style="fill:#585858;stroke:#585858;"></polygon><polygon stroke-linejoin="round" stroke-miterlimit="1" stroke-width="1" points="527,663 394,579 381,625" style="fill:#646464;stroke:#646464;"></polygon><polygon stroke-linejoin="round" stroke-miterlimit="1" stroke-width="1" points="537,800 474,773 515,860" style="fill:#5e5e5e;stroke:#5e5e5e;"></polygon><polygon stroke-linejoin="round" stroke-miterlimit="1" stroke-width="1" points="465,1047 403,1045 361,1068" style="fill:#585858;stroke:#585858;"></polygon><polygon stroke-linejoin="round" stroke-miterlimit="1" stroke-width="1" points="527,663 454,723 499,734" style="fill:#616161;stroke:#616161;"></polygon><polygon stroke-linejoin="round" stroke-miterlimit="1" stroke-width="1" points="531,322 493,238 381,284" style="fill:#808080;stroke:#808080;"></polygon><polygon stroke-linejoin="round" stroke-miterlimit="1" stroke-width="1" points="531,322 381,284 474,383" style="fill:#797979;stroke:#797979;"></polygon><polygon stroke-linejoin="round" stroke-miterlimit="1" stroke-width="1" points="527,663 381,625 454,723" style="fill:#626262;stroke:#626262;"></polygon><polygon stroke-linejoin="round" stroke-miterlimit="1" stroke-width="1" points="527,-29 480,3 520,2" style="fill:#e6e6e6;stroke:#e6e6e6;"></polygon><polygon stroke-linejoin="round" stroke-miterlimit="1" stroke-width="1" points="527,-29 467,-22 480,3" style="fill:#ededed;stroke:#ededed;"></polygon><polygon stroke-linejoin="round" stroke-miterlimit="1" stroke-width="1" points="524,1518 433,1557 521,1562" style="fill:#535353;stroke:#535353;"></polygon><polygon stroke-linejoin="round" stroke-miterlimit="1" stroke-width="1" points="517,-170 408,-195 430,-68" style="fill:#c4c4c4;stroke:#c4c4c4;"></polygon><polygon stroke-linejoin="round" stroke-miterlimit="1" stroke-width="1" points="518,1609 390,1584 455,1721" style="fill:#525252;stroke:#525252;"></polygon><polygon stroke-linejoin="round" stroke-miterlimit="1" stroke-width="1" points="521,1562 433,1557 518,1609" style="fill:#535353;stroke:#535353;"></polygon><polygon stroke-linejoin="round" stroke-miterlimit="1" stroke-width="1" points="524,1518 447,1436 433,1557" style="fill:#535353;stroke:#535353;"></polygon><polygon stroke-linejoin="round" stroke-miterlimit="1" stroke-width="1" points="518,1609 433,1557 390,1584" style="fill:#535353;stroke:#535353;"></polygon><polygon stroke-linejoin="round" stroke-miterlimit="1" stroke-width="1" points="515,860 474,773 455,914" style="fill:#5d5d5d;stroke:#5d5d5d;"></polygon><polygon stroke-linejoin="round" stroke-miterlimit="1" stroke-width="1" points="517,-170 487,-224 408,-195" style="fill:#aaaaaa;stroke:#aaaaaa;"></polygon><polygon stroke-linejoin="round" stroke-miterlimit="1" stroke-width="1" points="465,1047 455,914 398,933" style="fill:#5a5a5a;stroke:#5a5a5a;"></polygon><polygon stroke-linejoin="round" stroke-miterlimit="1" stroke-width="1" points="390,1584 365,1685 373,1698" style="fill:#525252;stroke:#525252;"></polygon><polygon stroke-linejoin="round" stroke-miterlimit="1" stroke-width="1" points="455,1721 390,1584 373,1698" style="fill:#525252;stroke:#525252;"></polygon><polygon stroke-linejoin="round" stroke-miterlimit="1" stroke-width="1" points="465,1047 398,933 403,1045" style="fill:#595959;stroke:#595959;"></polygon><polygon stroke-linejoin="round" stroke-miterlimit="1" stroke-width="1" points="474,773 390,773 455,914" style="fill:#5d5d5d;stroke:#5d5d5d;"></polygon><polygon stroke-linejoin="round" stroke-miterlimit="1" stroke-width="1" points="474,383 381,284 365,329" style="fill:#797979;stroke:#797979;"></polygon><polygon stroke-linejoin="round" stroke-miterlimit="1" stroke-width="1" points="485,83 377,104 424,198" style="fill:#a4a4a4;stroke:#a4a4a4;"></polygon><polygon stroke-linejoin="round" stroke-miterlimit="1" stroke-width="1" points="487,-224 422,-224 408,-195" style="fill:#a2a2a2;stroke:#a2a2a2;"></polygon><polygon stroke-linejoin="round" stroke-miterlimit="1" stroke-width="1" points="499,734 457,737 474,773" style="fill:#5f5f5f;stroke:#5f5f5f;"></polygon><polygon stroke-linejoin="round" stroke-miterlimit="1" stroke-width="1" points="499,734 454,723 457,737" style="fill:#606060;stroke:#606060;"></polygon><polygon stroke-linejoin="round" stroke-miterlimit="1" stroke-width="1" points="403,1045 398,933 372,967" style="fill:#5a5a5a;stroke:#5a5a5a;"></polygon><polygon stroke-linejoin="round" stroke-miterlimit="1" stroke-width="1" points="430,-68 408,-195 367,-153" style="fill:#c5c5c5;stroke:#c5c5c5;"></polygon><polygon stroke-linejoin="round" stroke-miterlimit="1" stroke-width="1" points="455,1721 373,1698 401,1721" style="fill:#525252;stroke:#525252;"></polygon><polygon stroke-linejoin="round" stroke-miterlimit="1" stroke-width="1" points="477,1391 454,1301 389,1344" style="fill:#555555;stroke:#555555;"></polygon><polygon stroke-linejoin="round" stroke-miterlimit="1" stroke-width="1" points="485,83 480,3 377,104" style="fill:#c4c4c4;stroke:#c4c4c4;"></polygon><polygon stroke-linejoin="round" stroke-miterlimit="1" stroke-width="1" points="493,238 424,198 381,284" style="fill:#878787;stroke:#878787;"></polygon><polygon stroke-linejoin="round" stroke-miterlimit="1" stroke-width="1" points="424,198 377,104 372,163" style="fill:#9b9b9b;stroke:#9b9b9b;"></polygon><polygon stroke-linejoin="round" stroke-miterlimit="1" stroke-width="1" points="474,773 401,764 390,773" style="fill:#5f5f5f;stroke:#5f5f5f;"></polygon><polygon stroke-linejoin="round" stroke-miterlimit="1" stroke-width="1" points="480,3 343,76 377,104" style="fill:#c7c7c7;stroke:#c7c7c7;"></polygon><polygon stroke-linejoin="round" stroke-miterlimit="1" stroke-width="1" points="447,1436 359,1520 433,1557" style="fill:#535353;stroke:#535353;"></polygon><polygon stroke-linejoin="round" stroke-miterlimit="1" stroke-width="1" points="455,914 390,773 398,933" style="fill:#5c5c5c;stroke:#5c5c5c;"></polygon><polygon stroke-linejoin="round" stroke-miterlimit="1" stroke-width="1" points="480,3 467,-22 343,76" style="fill:#f2f2f2;stroke:#f2f2f2;"></polygon><polygon stroke-linejoin="round" stroke-miterlimit="1" stroke-width="1" points="454,1301 329,1186 322,1289" style="fill:#565656;stroke:#565656;"></polygon><polygon stroke-linejoin="round" stroke-miterlimit="1" stroke-width="1" points="467,-22 348,-40 343,76" style="fill:#ffffff;stroke:#ffffff;"></polygon><polygon stroke-linejoin="round" stroke-miterlimit="1" stroke-width="1" points="474,383 371,402 407,456" style="fill:#717171;stroke:#717171;"></polygon><polygon stroke-linejoin="round" stroke-miterlimit="1" stroke-width="1" points="474,383 365,329 371,402" style="fill:#747474;stroke:#747474;"></polygon><polygon stroke-linejoin="round" stroke-miterlimit="1" stroke-width="1" points="477,1391 389,1344 447,1436" style="fill:#545454;stroke:#545454;"></polygon><polygon stroke-linejoin="round" stroke-miterlimit="1" stroke-width="1" points="447,1436 389,1344 373,1413" style="fill:#545454;stroke:#545454;"></polygon><polygon stroke-linejoin="round" stroke-miterlimit="1" stroke-width="1" points="474,773 457,737 401,764" style="fill:#5f5f5f;stroke:#5f5f5f;"></polygon><polygon stroke-linejoin="round" stroke-miterlimit="1" stroke-width="1" points="467,-22 430,-68 348,-40" style="fill:#ffffff;stroke:#ffffff;"></polygon><polygon stroke-linejoin="round" stroke-miterlimit="1" stroke-width="1" points="447,1436 344,1482 359,1520" style="fill:#535353;stroke:#535353;"></polygon><polygon stroke-linejoin="round" stroke-miterlimit="1" stroke-width="1" points="407,456 337,510 394,579" style="fill:#696969;stroke:#696969;"></polygon><polygon stroke-linejoin="round" stroke-miterlimit="1" stroke-width="1" points="454,723 381,625 401,764" style="fill:#616161;stroke:#616161;"></polygon><polygon stroke-linejoin="round" stroke-miterlimit="1" stroke-width="1" points="454,1301 322,1289 389,1344" style="fill:#555555;stroke:#555555;"></polygon><polygon stroke-linejoin="round" stroke-miterlimit="1" stroke-width="1" points="457,737 454,723 401,764" style="fill:#606060;stroke:#606060;"></polygon><polygon stroke-linejoin="round" stroke-miterlimit="1" stroke-width="1" points="401,764 381,625 328,655" style="fill:#626262;stroke:#626262;"></polygon><polygon stroke-linejoin="round" stroke-miterlimit="1" stroke-width="1" points="401,764 328,655 316,710" style="fill:#606060;stroke:#606060;"></polygon><polygon stroke-linejoin="round" stroke-miterlimit="1" stroke-width="1" points="447,1436 373,1413 344,1482" style="fill:#545454;stroke:#545454;"></polygon><polygon stroke-linejoin="round" stroke-miterlimit="1" stroke-width="1" points="390,773 295,806 284,830" style="fill:#5e5e5e;stroke:#5e5e5e;"></polygon><polygon stroke-linejoin="round" stroke-miterlimit="1" stroke-width="1" points="398,933 390,773 284,830" style="fill:#5d5d5d;stroke:#5d5d5d;"></polygon><polygon stroke-linejoin="round" stroke-miterlimit="1" stroke-width="1" points="422,-224 412,-224 408,-195" style="fill:#a1a1a1;stroke:#a1a1a1;"></polygon><polygon stroke-linejoin="round" stroke-miterlimit="1" stroke-width="1" points="424,198 346,264 381,284" style="fill:#858585;stroke:#858585;"></polygon><polygon stroke-linejoin="round" stroke-miterlimit="1" stroke-width="1" points="430,-68 367,-153 329,-70" style="fill:#e3e3e3;stroke:#e3e3e3;"></polygon><polygon stroke-linejoin="round" stroke-miterlimit="1" stroke-width="1" points="433,1557 359,1520 390,1584" style="fill:#535353;stroke:#535353;"></polygon><polygon stroke-linejoin="round" stroke-miterlimit="1" stroke-width="1" points="403,1045 372,967 366,1041" style="fill:#595959;stroke:#595959;"></polygon><polygon stroke-linejoin="round" stroke-miterlimit="1" stroke-width="1" points="430,-68 329,-70 348,-40" style="fill:#ffffff;stroke:#ffffff;"></polygon><polygon stroke-linejoin="round" stroke-miterlimit="1" stroke-width="1" points="424,198 372,163 346,264" style="fill:#8d8d8d;stroke:#8d8d8d;"></polygon><polygon stroke-linejoin="round" stroke-miterlimit="1" stroke-width="1" points="401,764 316,710 390,773" style="fill:#5f5f5f;stroke:#5f5f5f;"></polygon><polygon stroke-linejoin="round" stroke-miterlimit="1" stroke-width="1" points="407,456 371,402 348,430" style="fill:#6f6f6f;stroke:#6f6f6f;"></polygon><polygon stroke-linejoin="round" stroke-miterlimit="1" stroke-width="1" points="412,-224 401,-224 408,-195" style="fill:#a1a1a1;stroke:#a1a1a1;"></polygon><polygon stroke-linejoin="round" stroke-miterlimit="1" stroke-width="1" points="390,1584 359,1520 339,1545" style="fill:#535353;stroke:#535353;"></polygon><polygon stroke-linejoin="round" stroke-miterlimit="1" stroke-width="1" points="401,1721 373,1698 380,1721" style="fill:#525252;stroke:#525252;"></polygon><polygon stroke-linejoin="round" stroke-miterlimit="1" stroke-width="1" points="407,456 348,430 337,510" style="fill:#6c6c6c;stroke:#6c6c6c;"></polygon><polygon stroke-linejoin="round" stroke-miterlimit="1" stroke-width="1" points="408,-195 401,-224 343,-181" style="fill:#a5a5a5;stroke:#a5a5a5;"></polygon><polygon stroke-linejoin="round" stroke-miterlimit="1" stroke-width="1" points="408,-195 343,-181 367,-153" style="fill:#adadad;stroke:#adadad;"></polygon><polygon stroke-linejoin="round" stroke-miterlimit="1" stroke-width="1" points="398,933 284,830 337,975" style="fill:#5b5b5b;stroke:#5b5b5b;"></polygon><polygon stroke-linejoin="round" stroke-miterlimit="1" stroke-width="1" points="403,1045 366,1041 361,1068" style="fill:#585858;stroke:#585858;"></polygon><polygon stroke-linejoin="round" stroke-miterlimit="1" stroke-width="1" points="390,1584 333,1690 365,1685" style="fill:#525252;stroke:#525252;"></polygon><polygon stroke-linejoin="round" stroke-miterlimit="1" stroke-width="1" points="401,-224 336,-194 343,-181" style="fill:#a3a3a3;stroke:#a3a3a3;"></polygon><polygon stroke-linejoin="round" stroke-miterlimit="1" stroke-width="1" points="372,163 298,193 346,264" style="fill:#8c8c8c;stroke:#8c8c8c;"></polygon><polygon stroke-linejoin="round" stroke-miterlimit="1" stroke-width="1" points="390,1584 268,1610 333,1690" style="fill:#525252;stroke:#525252;"></polygon><polygon stroke-linejoin="round" stroke-miterlimit="1" stroke-width="1" points="394,579 337,510 341,596" style="fill:#676767;stroke:#676767;"></polygon><polygon stroke-linejoin="round" stroke-miterlimit="1" stroke-width="1" points="401,-224 328,-224 336,-194" style="fill:#9d9d9d;stroke:#9d9d9d;"></polygon><polygon stroke-linejoin="round" stroke-miterlimit="1" stroke-width="1" points="372,967 337,975 366,1041" style="fill:#595959;stroke:#595959;"></polygon><polygon stroke-linejoin="round" stroke-miterlimit="1" stroke-width="1" points="394,579 341,596 381,625" style="fill:#656565;stroke:#656565;"></polygon><polygon stroke-linejoin="round" stroke-miterlimit="1" stroke-width="1" points="398,933 337,975 372,967" style="fill:#5a5a5a;stroke:#5a5a5a;"></polygon><polygon stroke-linejoin="round" stroke-miterlimit="1" stroke-width="1" points="367,-153 310,-132 329,-70" style="fill:#c5c5c5;stroke:#c5c5c5;"></polygon><polygon stroke-linejoin="round" stroke-miterlimit="1" stroke-width="1" points="389,1344 289,1388 373,1413" style="fill:#545454;stroke:#545454;"></polygon><polygon stroke-linejoin="round" stroke-miterlimit="1" stroke-width="1" points="390,1584 339,1545 268,1610" style="fill:#535353;stroke:#535353;"></polygon><polygon stroke-linejoin="round" stroke-miterlimit="1" stroke-width="1" points="373,1413 318,1438 344,1482" style="fill:#545454;stroke:#545454;"></polygon><polygon stroke-linejoin="round" stroke-miterlimit="1" stroke-width="1" points="390,773 316,710 295,806" style="fill:#5f5f5f;stroke:#5f5f5f;"></polygon><polygon stroke-linejoin="round" stroke-miterlimit="1" stroke-width="1" points="361,1068 274,1079 329,1186" style="fill:#575757;stroke:#575757;"></polygon><polygon stroke-linejoin="round" stroke-miterlimit="1" stroke-width="1" points="381,284 335,294 365,329" style="fill:#7c7c7c;stroke:#7c7c7c;"></polygon><polygon stroke-linejoin="round" stroke-miterlimit="1" stroke-width="1" points="389,1344 322,1289 293,1308" style="fill:#555555;stroke:#555555;"></polygon><polygon stroke-linejoin="round" stroke-miterlimit="1" stroke-width="1" points="389,1344 293,1308 289,1388" style="fill:#555555;stroke:#555555;"></polygon><polygon stroke-linejoin="round" stroke-miterlimit="1" stroke-width="1" points="337,975 284,830 235,923" style="fill:#5b5b5b;stroke:#5b5b5b;"></polygon><polygon stroke-linejoin="round" stroke-miterlimit="1" stroke-width="1" points="371,402 365,329 307,327" style="fill:#767676;stroke:#767676;"></polygon><polygon stroke-linejoin="round" stroke-miterlimit="1" stroke-width="1" points="377,104 343,76 372,163" style="fill:#a8a8a8;stroke:#a8a8a8;"></polygon><polygon stroke-linejoin="round" stroke-miterlimit="1" stroke-width="1" points="380,1721 373,1698 367,1721" style="fill:#525252;stroke:#525252;"></polygon><polygon stroke-linejoin="round" stroke-miterlimit="1" stroke-width="1" points="381,284 346,264 335,294" style="fill:#7f7f7f;stroke:#7f7f7f;"></polygon><polygon stroke-linejoin="round" stroke-miterlimit="1" stroke-width="1" points="381,625 341,596 328,655" style="fill:#646464;stroke:#646464;"></polygon><polygon stroke-linejoin="round" stroke-miterlimit="1" stroke-width="1" points="372,163 343,76 298,193" style="fill:#9c9c9c;stroke:#9c9c9c;"></polygon><polygon stroke-linejoin="round" stroke-miterlimit="1" stroke-width="1" points="367,1721 365,1685 333,1690" style="fill:#525252;stroke:#525252;"></polygon><polygon stroke-linejoin="round" stroke-miterlimit="1" stroke-width="1" points="371,402 307,327 348,430" style="fill:#727272;stroke:#727272;"></polygon><polygon stroke-linejoin="round" stroke-miterlimit="1" stroke-width="1" points="373,1413 289,1388 318,1438" style="fill:#545454;stroke:#545454;"></polygon><polygon stroke-linejoin="round" stroke-miterlimit="1" stroke-width="1" points="373,1698 365,1685 367,1721" style="fill:#525252;stroke:#525252;"></polygon><polygon stroke-linejoin="round" stroke-miterlimit="1" stroke-width="1" points="367,1721 333,1690 333,1721" style="fill:#525252;stroke:#525252;"></polygon><polygon stroke-linejoin="round" stroke-miterlimit="1" stroke-width="1" points="348,-40 243,-45 343,76" style="fill:#e6e6e6;stroke:#e6e6e6;"></polygon><polygon stroke-linejoin="round" stroke-miterlimit="1" stroke-width="1" points="333,1690 268,1610 292,1689" style="fill:#525252;stroke:#525252;"></polygon><polygon stroke-linejoin="round" stroke-miterlimit="1" stroke-width="1" points="366,1041 337,975 285,1057" style="fill:#595959;stroke:#595959;"></polygon><polygon stroke-linejoin="round" stroke-miterlimit="1" stroke-width="1" points="367,-153 343,-181 310,-132" style="fill:#b2b2b2;stroke:#b2b2b2;"></polygon><polygon stroke-linejoin="round" stroke-miterlimit="1" stroke-width="1" points="366,1041 285,1057 361,1068" style="fill:#585858;stroke:#585858;"></polygon><polygon stroke-linejoin="round" stroke-miterlimit="1" stroke-width="1" points="361,1068 285,1057 274,1079" style="fill:#585858;stroke:#585858;"></polygon><polygon stroke-linejoin="round" stroke-miterlimit="1" stroke-width="1" points="365,329 335,294 307,327" style="fill:#7a7a7a;stroke:#7a7a7a;"></polygon><polygon stroke-linejoin="round" stroke-miterlimit="1" stroke-width="1" points="329,1186 275,1274 322,1289" style="fill:#565656;stroke:#565656;"></polygon><polygon stroke-linejoin="round" stroke-miterlimit="1" stroke-width="1" points="359,1520 344,1482 339,1545" style="fill:#535353;stroke:#535353;"></polygon><polygon stroke-linejoin="round" stroke-miterlimit="1" stroke-width="1" points="337,975 258,1028 285,1057" style="fill:#595959;stroke:#595959;"></polygon><polygon stroke-linejoin="round" stroke-miterlimit="1" stroke-width="1" points="341,596 337,510 199,552" style="fill:#676767;stroke:#676767;"></polygon><polygon stroke-linejoin="round" stroke-miterlimit="1" stroke-width="1" points="343,-181 300,-170 310,-132" style="fill:#acacac;stroke:#acacac;"></polygon><polygon stroke-linejoin="round" stroke-miterlimit="1" stroke-width="1" points="343,76 243,-45 197,-9" style="fill:#ffffff;stroke:#ffffff;"></polygon><polygon stroke-linejoin="round" stroke-miterlimit="1" stroke-width="1" points="344,1482 288,1468 339,1545" style="fill:#535353;stroke:#535353;"></polygon><polygon stroke-linejoin="round" stroke-miterlimit="1" stroke-width="1" points="344,1482 318,1438 288,1468" style="fill:#535353;stroke:#535353;"></polygon><polygon stroke-linejoin="round" stroke-miterlimit="1" stroke-width="1" points="348,-40 329,-70 267,-66" style="fill:#e4e4e4;stroke:#e4e4e4;"></polygon><polygon stroke-linejoin="round" stroke-miterlimit="1" stroke-width="1" points="348,-40 267,-66 243,-45" style="fill:#efefef;stroke:#efefef;"></polygon><polygon stroke-linejoin="round" stroke-miterlimit="1" stroke-width="1" points="348,430 307,327 214,375" style="fill:#727272;stroke:#727272;"></polygon><polygon stroke-linejoin="round" stroke-miterlimit="1" stroke-width="1" points="348,430 214,375 214,421" style="fill:#6f6f6f;stroke:#6f6f6f;"></polygon><polygon stroke-linejoin="round" stroke-miterlimit="1" stroke-width="1" points="348,430 223,466 337,510" style="fill:#6b6b6b;stroke:#6b6b6b;"></polygon><polygon stroke-linejoin="round" stroke-miterlimit="1" stroke-width="1" points="348,430 214,421 223,466" style="fill:#6d6d6d;stroke:#6d6d6d;"></polygon><polygon stroke-linejoin="round" stroke-miterlimit="1" stroke-width="1" points="333,1690 331,1721 333,1721" style="fill:#525252;stroke:#525252;"></polygon><polygon stroke-linejoin="round" stroke-miterlimit="1" stroke-width="1" points="339,1545 288,1468 249,1502" style="fill:#535353;stroke:#535353;"></polygon><polygon stroke-linejoin="round" stroke-miterlimit="1" stroke-width="1" points="346,264 298,193 335,294" style="fill:#838383;stroke:#838383;"></polygon><polygon stroke-linejoin="round" stroke-miterlimit="1" stroke-width="1" points="329,1186 274,1079 224,1174" style="fill:#575757;stroke:#575757;"></polygon><polygon stroke-linejoin="round" stroke-miterlimit="1" stroke-width="1" points="335,294 298,193 207,264" style="fill:#818181;stroke:#818181;"></polygon><polygon stroke-linejoin="round" stroke-miterlimit="1" stroke-width="1" points="341,596 199,552 203,604" style="fill:#656565;stroke:#656565;"></polygon><polygon stroke-linejoin="round" stroke-miterlimit="1" stroke-width="1" points="343,76 197,-9 298,193" style="fill:#b0b0b0;stroke:#b0b0b0;"></polygon><polygon stroke-linejoin="round" stroke-miterlimit="1" stroke-width="1" points="343,-181 336,-194 300,-170" style="fill:#a5a5a5;stroke:#a5a5a5;"></polygon><polygon stroke-linejoin="round" stroke-miterlimit="1" stroke-width="1" points="335,294 207,264 242,326" style="fill:#7a7a7a;stroke:#7a7a7a;"></polygon><polygon stroke-linejoin="round" stroke-miterlimit="1" stroke-width="1" points="341,596 203,604 328,655" style="fill:#646464;stroke:#646464;"></polygon><polygon stroke-linejoin="round" stroke-miterlimit="1" stroke-width="1" points="335,294 242,326 307,327" style="fill:#797979;stroke:#797979;"></polygon><polygon stroke-linejoin="round" stroke-miterlimit="1" stroke-width="1" points="337,975 235,923 230,932" style="fill:#5a5a5a;stroke:#5a5a5a;"></polygon><polygon stroke-linejoin="round" stroke-miterlimit="1" stroke-width="1" points="337,510 223,466 199,552" style="fill:#686868;stroke:#686868;"></polygon><polygon stroke-linejoin="round" stroke-miterlimit="1" stroke-width="1" points="339,1545 249,1502 268,1610" style="fill:#535353;stroke:#535353;"></polygon><polygon stroke-linejoin="round" stroke-miterlimit="1" stroke-width="1" points="329,-70 310,-132 261,-81" style="fill:#d0d0d0;stroke:#d0d0d0;"></polygon><polygon stroke-linejoin="round" stroke-miterlimit="1" stroke-width="1" points="333,1690 292,1689 331,1721" style="fill:#525252;stroke:#525252;"></polygon><polygon stroke-linejoin="round" stroke-miterlimit="1" stroke-width="1" points="318,1438 289,1388 288,1432" style="fill:#545454;stroke:#545454;"></polygon><polygon stroke-linejoin="round" stroke-miterlimit="1" stroke-width="1" points="336,-194 328,-224 283,-224" style="fill:#9a9a9a;stroke:#9a9a9a;"></polygon><polygon stroke-linejoin="round" stroke-miterlimit="1" stroke-width="1" points="336,-194 283,-224 300,-170" style="fill:#9e9e9e;stroke:#9e9e9e;"></polygon><polygon stroke-linejoin="round" stroke-miterlimit="1" stroke-width="1" points="337,975 230,932 258,1028" style="fill:#5a5a5a;stroke:#5a5a5a;"></polygon><polygon stroke-linejoin="round" stroke-miterlimit="1" stroke-width="1" points="331,1721 292,1689 226,1721" style="fill:#525252;stroke:#525252;"></polygon><polygon stroke-linejoin="round" stroke-miterlimit="1" stroke-width="1" points="284,830 237,848 235,923" style="fill:#5c5c5c;stroke:#5c5c5c;"></polygon><polygon stroke-linejoin="round" stroke-miterlimit="1" stroke-width="1" points="316,710 218,760 295,806" style="fill:#5f5f5f;stroke:#5f5f5f;"></polygon><polygon stroke-linejoin="round" stroke-miterlimit="1" stroke-width="1" points="329,1186 224,1174 275,1274" style="fill:#565656;stroke:#565656;"></polygon><polygon stroke-linejoin="round" stroke-miterlimit="1" stroke-width="1" points="329,-70 261,-81 267,-66" style="fill:#e0e0e0;stroke:#e0e0e0;"></polygon><polygon stroke-linejoin="round" stroke-miterlimit="1" stroke-width="1" points="307,327 242,326 214,375" style="fill:#747474;stroke:#747474;"></polygon><polygon stroke-linejoin="round" stroke-miterlimit="1" stroke-width="1" points="274,1079 221,1107 224,1174" style="fill:#575757;stroke:#575757;"></polygon><polygon stroke-linejoin="round" stroke-miterlimit="1" stroke-width="1" points="328,655 192,700 316,710" style="fill:#616161;stroke:#616161;"></polygon><polygon stroke-linejoin="round" stroke-miterlimit="1" stroke-width="1" points="328,655 203,604 192,700" style="fill:#626262;stroke:#626262;"></polygon><polygon stroke-linejoin="round" stroke-miterlimit="1" stroke-width="1" points="293,1308 275,1308 289,1388" style="fill:#555555;stroke:#555555;"></polygon><polygon stroke-linejoin="round" stroke-miterlimit="1" stroke-width="1" points="322,1289 275,1274 293,1308" style="fill:#555555;stroke:#555555;"></polygon><polygon stroke-linejoin="round" stroke-miterlimit="1" stroke-width="1" points="318,1438 288,1432 288,1468" style="fill:#545454;stroke:#545454;"></polygon><polygon stroke-linejoin="round" stroke-miterlimit="1" stroke-width="1" points="310,-132 244,-107 261,-81" style="fill:#c2c2c2;stroke:#c2c2c2;"></polygon><polygon stroke-linejoin="round" stroke-miterlimit="1" stroke-width="1" points="316,710 192,700 218,760" style="fill:#5f5f5f;stroke:#5f5f5f;"></polygon><polygon stroke-linejoin="round" stroke-miterlimit="1" stroke-width="1" points="237,848 226,912 235,923" style="fill:#5b5b5b;stroke:#5b5b5b;"></polygon><polygon stroke-linejoin="round" stroke-miterlimit="1" stroke-width="1" points="268,1610 249,1502 209,1537" style="fill:#535353;stroke:#535353;"></polygon><polygon stroke-linejoin="round" stroke-miterlimit="1" stroke-width="1" points="298,193 197,-9 199,262" style="fill:#929292;stroke:#929292;"></polygon><polygon stroke-linejoin="round" stroke-miterlimit="1" stroke-width="1" points="300,-170 283,-224 249,-180" style="fill:#9c9c9c;stroke:#9c9c9c;"></polygon><polygon stroke-linejoin="round" stroke-miterlimit="1" stroke-width="1" points="310,-132 300,-170 249,-180" style="fill:#a8a8a8;stroke:#a8a8a8;"></polygon><polygon stroke-linejoin="round" stroke-miterlimit="1" stroke-width="1" points="310,-132 249,-180 244,-107" style="fill:#aeaeae;stroke:#aeaeae;"></polygon><polygon stroke-linejoin="round" stroke-miterlimit="1" stroke-width="1" points="295,806 218,760 276,818" style="fill:#5e5e5e;stroke:#5e5e5e;"></polygon><polygon stroke-linejoin="round" stroke-miterlimit="1" stroke-width="1" points="237,848 220,868 226,912" style="fill:#5b5b5b;stroke:#5b5b5b;"></polygon><polygon stroke-linejoin="round" stroke-miterlimit="1" stroke-width="1" points="261,-81 244,-107 246,-99" style="fill:#c5c5c5;stroke:#c5c5c5;"></polygon><polygon stroke-linejoin="round" stroke-miterlimit="1" stroke-width="1" points="283,-224 265,-224 249,-180" style="fill:#959595;stroke:#959595;"></polygon><polygon stroke-linejoin="round" stroke-miterlimit="1" stroke-width="1" points="289,1388 268,1430 288,1432" style="fill:#545454;stroke:#545454;"></polygon><polygon stroke-linejoin="round" stroke-miterlimit="1" stroke-width="1" points="293,1308 275,1274 275,1308" style="fill:#555555;stroke:#555555;"></polygon><polygon stroke-linejoin="round" stroke-miterlimit="1" stroke-width="1" points="295,806 276,818 284,830" style="fill:#5d5d5d;stroke:#5d5d5d;"></polygon><polygon stroke-linejoin="round" stroke-miterlimit="1" stroke-width="1" points="289,1388 275,1308 192,1378" style="fill:#545454;stroke:#545454;"></polygon><polygon stroke-linejoin="round" stroke-miterlimit="1" stroke-width="1" points="292,1689 268,1610 226,1721" style="fill:#525252;stroke:#525252;"></polygon><polygon stroke-linejoin="round" stroke-miterlimit="1" stroke-width="1" points="298,193 199,262 207,264" style="fill:#808080;stroke:#808080;"></polygon><polygon stroke-linejoin="round" stroke-miterlimit="1" stroke-width="1" points="288,1468 288,1432 268,1430" style="fill:#545454;stroke:#545454;"></polygon><polygon stroke-linejoin="round" stroke-miterlimit="1" stroke-width="1" points="258,1028 230,932 206,1012" style="fill:#595959;stroke:#595959;"></polygon><polygon stroke-linejoin="round" stroke-miterlimit="1" stroke-width="1" points="276,818 218,760 211,790" style="fill:#5e5e5e;stroke:#5e5e5e;"></polygon><polygon stroke-linejoin="round" stroke-miterlimit="1" stroke-width="1" points="203,604 192,611 192,700" style="fill:#626262;stroke:#626262;"></polygon><polygon stroke-linejoin="round" stroke-miterlimit="1" stroke-width="1" points="268,1610 209,1537 198,1583" style="fill:#525252;stroke:#525252;"></polygon><polygon stroke-linejoin="round" stroke-miterlimit="1" stroke-width="1" points="275,1274 224,1174 192,1189" style="fill:#565656;stroke:#565656;"></polygon><polygon stroke-linejoin="round" stroke-miterlimit="1" stroke-width="1" points="289,1388 192,1378 268,1430" style="fill:#545454;stroke:#545454;"></polygon><polygon stroke-linejoin="round" stroke-miterlimit="1" stroke-width="1" points="288,1468 268,1430 249,1502" style="fill:#535353;stroke:#535353;"></polygon><polygon stroke-linejoin="round" stroke-miterlimit="1" stroke-width="1" points="275,1308 192,1302 192,1378" style="fill:#555555;stroke:#555555;"></polygon><polygon stroke-linejoin="round" stroke-miterlimit="1" stroke-width="1" points="284,830 276,818 237,848" style="fill:#5d5d5d;stroke:#5d5d5d;"></polygon><polygon stroke-linejoin="round" stroke-miterlimit="1" stroke-width="1" points="285,1057 258,1028 274,1079" style="fill:#585858;stroke:#585858;"></polygon><polygon stroke-linejoin="round" stroke-miterlimit="1" stroke-width="1" points="226,1721 198,1583 192,1721" style="fill:#525252;stroke:#525252;"></polygon><polygon stroke-linejoin="round" stroke-miterlimit="1" stroke-width="1" points="268,1610 198,1583 226,1721" style="fill:#525252;stroke:#525252;"></polygon><polygon stroke-linejoin="round" stroke-miterlimit="1" stroke-width="1" points="274,1079 258,1028 221,1107" style="fill:#585858;stroke:#585858;"></polygon><polygon stroke-linejoin="round" stroke-miterlimit="1" stroke-width="1" points="275,1274 192,1302 275,1308" style="fill:#555555;stroke:#555555;"></polygon><polygon stroke-linejoin="round" stroke-miterlimit="1" stroke-width="1" points="275,1274 192,1189 192,1302" style="fill:#555555;stroke:#555555;"></polygon><polygon stroke-linejoin="round" stroke-miterlimit="1" stroke-width="1" points="276,818 211,790 237,848" style="fill:#5d5d5d;stroke:#5d5d5d;"></polygon><polygon stroke-linejoin="round" stroke-miterlimit="1" stroke-width="1" points="249,-180 221,-180 244,-107" style="fill:#a1a1a1;stroke:#a1a1a1;"></polygon><polygon stroke-linejoin="round" stroke-miterlimit="1" stroke-width="1" points="258,1028 206,1012 221,1107" style="fill:#585858;stroke:#585858;"></polygon><polygon stroke-linejoin="round" stroke-miterlimit="1" stroke-width="1" points="265,-224 221,-180 249,-180" style="fill:#969696;stroke:#969696;"></polygon><polygon stroke-linejoin="round" stroke-miterlimit="1" stroke-width="1" points="268,1430 192,1378 249,1502" style="fill:#545454;stroke:#545454;"></polygon><polygon stroke-linejoin="round" stroke-miterlimit="1" stroke-width="1" points="267,-66 261,-81 243,-45" style="fill:#eaeaea;stroke:#eaeaea;"></polygon><polygon stroke-linejoin="round" stroke-miterlimit="1" stroke-width="1" points="265,-224 192,-224 221,-180" style="fill:#909090;stroke:#909090;"></polygon><polygon stroke-linejoin="round" stroke-miterlimit="1" stroke-width="1" points="244,-107 221,-180 192,-112" style="fill:#a6a6a6;stroke:#a6a6a6;"></polygon><polygon stroke-linejoin="round" stroke-miterlimit="1" stroke-width="1" points="261,-81 246,-99 243,-45" style="fill:#dadada;stroke:#dadada;"></polygon><polygon stroke-linejoin="round" stroke-miterlimit="1" stroke-width="1" points="249,1502 192,1378 209,1537" style="fill:#535353;stroke:#535353;"></polygon><polygon stroke-linejoin="round" stroke-miterlimit="1" stroke-width="1" points="218,760 192,700 192,749" style="fill:#5f5f5f;stroke:#5f5f5f;"></polygon><polygon stroke-linejoin="round" stroke-miterlimit="1" stroke-width="1" points="246,-99 192,-112 243,-45" style="fill:#c6c6c6;stroke:#c6c6c6;"></polygon><polygon stroke-linejoin="round" stroke-miterlimit="1" stroke-width="1" points="243,-45 192,-112 197,-9" style="fill:#dadada;stroke:#dadada;"></polygon><polygon stroke-linejoin="round" stroke-miterlimit="1" stroke-width="1" points="246,-99 244,-107 192,-112" style="fill:#b7b7b7;stroke:#b7b7b7;"></polygon><polygon stroke-linejoin="round" stroke-miterlimit="1" stroke-width="1" points="242,326 207,264 199,262" style="fill:#797979;stroke:#797979;"></polygon><polygon stroke-linejoin="round" stroke-miterlimit="1" stroke-width="1" points="242,326 199,262 214,375" style="fill:#757575;stroke:#757575;"></polygon><polygon stroke-linejoin="round" stroke-miterlimit="1" stroke-width="1" points="209,1537 192,1549 198,1583" style="fill:#535353;stroke:#535353;"></polygon><polygon stroke-linejoin="round" stroke-miterlimit="1" stroke-width="1" points="209,1537 192,1378 192,1549" style="fill:#535353;stroke:#535353;"></polygon><polygon stroke-linejoin="round" stroke-miterlimit="1" stroke-width="1" points="237,848 211,790 220,868" style="fill:#5c5c5c;stroke:#5c5c5c;"></polygon><polygon stroke-linejoin="round" stroke-miterlimit="1" stroke-width="1" points="224,1174 221,1107 192,1189" style="fill:#575757;stroke:#575757;"></polygon><polygon stroke-linejoin="round" stroke-miterlimit="1" stroke-width="1" points="235,923 226,912 230,932" style="fill:#5a5a5a;stroke:#5a5a5a;"></polygon><polygon stroke-linejoin="round" stroke-miterlimit="1" stroke-width="1" points="230,932 226,912 206,1012" style="fill:#5a5a5a;stroke:#5a5a5a;"></polygon><polygon stroke-linejoin="round" stroke-miterlimit="1" stroke-width="1" points="226,912 220,868 206,1012" style="fill:#5a5a5a;stroke:#5a5a5a;"></polygon><polygon stroke-linejoin="round" stroke-miterlimit="1" stroke-width="1" points="223,466 214,421 199,552" style="fill:#696969;stroke:#696969;"></polygon><polygon stroke-linejoin="round" stroke-miterlimit="1" stroke-width="1" points="221,1107 206,1012 192,1189" style="fill:#575757;stroke:#575757;"></polygon><polygon stroke-linejoin="round" stroke-miterlimit="1" stroke-width="1" points="221,-180 192,-224 192,-112" style="fill:#959595;stroke:#959595;"></polygon><polygon stroke-linejoin="round" stroke-miterlimit="1" stroke-width="1" points="220,868 192,749 206,1012" style="fill:#5b5b5b;stroke:#5b5b5b;"></polygon><polygon stroke-linejoin="round" stroke-miterlimit="1" stroke-width="1" points="218,760 192,749 211,790" style="fill:#5e5e5e;stroke:#5e5e5e;"></polygon><polygon stroke-linejoin="round" stroke-miterlimit="1" stroke-width="1" points="220,868 211,790 192,749" style="fill:#5d5d5d;stroke:#5d5d5d;"></polygon><polygon stroke-linejoin="round" stroke-miterlimit="1" stroke-width="1" points="214,375 199,262 214,421" style="fill:#727272;stroke:#727272;"></polygon><polygon stroke-linejoin="round" stroke-miterlimit="1" stroke-width="1" points="214,421 199,262 199,552" style="fill:#6d6d6d;stroke:#6d6d6d;"></polygon><polygon stroke-linejoin="round" stroke-miterlimit="1" stroke-width="1" points="203,604 199,552 192,611" style="fill:#646464;stroke:#646464;"></polygon><polygon stroke-linejoin="round" stroke-miterlimit="1" stroke-width="1" points="206,1012 192,749 192,1189" style="fill:#595959;stroke:#595959;"></polygon><polygon stroke-linejoin="round" stroke-miterlimit="1" stroke-width="1" points="199,552 199,262 192,611" style="fill:#696969;stroke:#696969;"></polygon><polygon stroke-linejoin="round" stroke-miterlimit="1" stroke-width="1" points="198,1583 192,1549 192,1721" style="fill:#525252;stroke:#525252;"></polygon><polygon stroke-linejoin="round" stroke-miterlimit="1" stroke-width="1" points="199,262 197,-9 192,-112" style="fill:#b5b5b5;stroke:#b5b5b5;"></polygon><polygon stroke-linejoin="round" stroke-miterlimit="1" stroke-width="1" points="199,262 192,-112 192,611" style="fill:#7c7c7c;stroke:#7c7c7c;"></polygon></svg>